<svg width="121" height="121" viewBox="0 0 121 121" fill="none" xmlns="http://www.w3.org/2000/svg">
<path d="M117.463 47.8691H2.8457V73.5927H117.463V47.8691Z" fill="#F5F5F5"/>
<path d="M61.4566 48.8984L53.543 73.5928L75.5898 73.5343L82.3556 48.8984H61.4566Z" fill="#EBEBEB"/>
<path d="M86.8182 48.8984L78.8008 73.5928H100.846L107.717 48.8984H86.8182Z" fill="#EBEBEB"/>
<path d="M15.9906 30.166H25.4461C27.295 30.166 28.7961 31.6671 28.7961 33.516V48.3852H12.6406V33.516C12.6406 31.6671 14.1417 30.166 15.9906 30.166Z" fill="#FAFAFA"/>
<path d="M37.3363 30.166H46.7918C48.6407 30.166 50.1418 31.6671 50.1418 33.516V48.3852H33.9863V33.516C33.9863 31.6671 35.4874 30.166 37.3363 30.166Z" fill="#FAFAFA"/>
<path d="M59.1059 30.166H68.5613C70.4103 30.166 71.9113 31.6671 71.9113 33.516V48.3852H55.7559V33.516C55.7559 31.6671 57.2569 30.166 59.1059 30.166Z" fill="#FAFAFA"/>
<path d="M80.8764 30.166H90.3318C92.1807 30.166 93.6818 31.6671 93.6818 33.516V48.3852H77.5264V33.516C77.5264 31.6671 79.0275 30.166 80.8764 30.166Z" fill="#FAFAFA"/>
<path d="M102.646 30.166H112.101C113.95 30.166 115.451 31.6671 115.451 33.516V48.3852H99.2959V33.516C99.2959 31.6671 100.797 30.166 102.646 30.166Z" fill="#FAFAFA"/>
<path d="M6.64395 37.3906H16.0994C17.9483 37.3906 19.4494 38.8917 19.4494 40.7406V48.3853H3.29395V40.7406C3.29395 38.8917 4.79503 37.3906 6.64395 37.3906Z" fill="#F5F5F5"/>
<path d="M26.7709 37.3906H36.2264C38.0753 37.3906 39.5764 38.8917 39.5764 40.7406V48.3853H23.4209V40.7407C23.4209 38.8917 24.922 37.3906 26.7709 37.3906Z" fill="#F5F5F5"/>
<path d="M47.933 37.3906H57.3885C59.2374 37.3906 60.7385 38.8917 60.7385 40.7406V48.3853H44.583V40.7407C44.583 38.8917 46.0841 37.3906 47.933 37.3906Z" fill="#F5F5F5"/>
<path d="M69.0942 37.3906H78.5496C80.3985 37.3906 81.8996 38.8917 81.8996 40.7406V48.3853H65.7441V40.7407C65.7441 38.8917 67.2452 37.3906 69.0942 37.3906Z" fill="#F5F5F5"/>
<path d="M90.2553 37.3906H99.7108C101.56 37.3906 103.061 38.8917 103.061 40.7407V48.3853H86.9053V40.7407C86.9053 38.8917 88.4064 37.3906 90.2553 37.3906Z" fill="#F5F5F5"/>
<path d="M117.805 46.2754H2.22754V48.8984H117.805V46.2754Z" fill="#E0E0E0"/>
<path d="M50.7376 53.0459H6.50781V69.1181H50.7376V53.0459Z" fill="#E0E0E0"/>
<path d="M117.463 79.1309H4.29688V80.8623H117.463V79.1309Z" fill="#EBEBEB"/>
<path d="M63.5159 80.498L49.959 112.151H53.2437L66.661 80.498H63.5159Z" fill="#EBEBEB"/>
<path d="M37.6796 92.5591C37.6888 92.5927 31.477 94.3095 23.8072 96.3933C16.1347 98.4778 9.90952 100.14 9.9004 100.106C9.89128 100.073 16.1016 98.3562 23.7742 96.2717C31.444 94.1879 37.6705 92.5255 37.6796 92.5591Z" fill="#EBEBEB"/>
<path d="M96.2489 100.375C96.2581 100.408 90.0464 102.125 82.3765 104.209C74.704 106.293 68.4789 107.955 68.4697 107.922C68.4606 107.888 74.671 106.172 82.3435 104.087C90.0133 102.003 96.2398 100.341 96.2489 100.375Z" fill="#EBEBEB"/>
<path d="M29.1584 99.1972C29.1683 99.2306 26.0374 100.188 22.1663 101.335C18.2938 102.482 15.1476 103.385 15.1377 103.352C15.1278 103.318 18.258 102.361 22.1305 101.214C26.0016 100.067 29.1485 99.1638 29.1584 99.1972Z" fill="#EBEBEB"/>
<path d="M103.615 93.4296C103.625 93.463 100.494 94.4201 96.6233 95.5671C92.7509 96.7145 89.6046 97.6173 89.5947 97.5839C89.5849 97.5506 92.7151 96.5937 96.5875 95.4463C100.459 94.2993 103.606 93.3963 103.615 93.4296Z" fill="#EBEBEB"/>
<path d="M118.806 78.6353C118.806 78.6701 92.9661 78.6983 61.0989 78.6983C29.2206 78.6983 3.38672 78.6701 3.38672 78.6353C3.38672 78.6005 29.2207 78.5723 61.0989 78.5723C92.9661 78.5723 118.806 78.6005 118.806 78.6353Z" fill="#263238"/>
<path d="M37.6734 68.7565C37.6734 68.7565 31.714 70.0936 30.4149 72.4335C30.4149 72.4335 30.3193 78.7179 29.5839 80.2556C28.8485 81.7933 28.4474 82.9298 28.4474 82.9298L27.1103 89.9496L23.6338 89.1474C23.6338 89.1474 24.0903 78.286 24.436 74.9072C24.7744 71.6006 24.8099 72.288 24.874 71.271C24.9276 70.419 25.1715 68.1548 25.6394 67.6868C26.1074 67.2188 32.2356 61.377 32.2356 61.377C32.2356 61.377 37.2723 65.0794 37.6734 68.7565Z" fill="#FFBF9D"/>
<path d="M45.4418 65.9537C44.9794 66.0693 36.1779 71.2712 36.1779 71.2712L30.4141 62.717L36.5408 58.2086C36.5408 58.2086 38.6793 55.4343 38.8527 55.4921C39.0261 55.5499 46.3088 56.6481 46.6556 56.7637C47.0024 56.8793 45.4418 65.9537 45.4418 65.9537Z" fill="#263238"/>
<path d="M17.7426 93.6557C17.7426 93.6557 19.5187 94.1531 21.0411 94.006C22.5635 93.8588 24.8066 93.2957 25.6319 93.0984C26.4573 92.901 28.869 93.1611 29.0287 92.3157C29.1884 91.4703 27.4677 88.3704 27.4677 88.3704C27.4677 88.3704 27.2329 89.3073 26.3947 89.2848C25.5565 89.2623 23.9234 88.8451 23.9234 88.8451C23.9234 88.8451 23.2048 87.7582 22.7226 87.7214C22.2404 87.6847 22.4173 89.0496 22.4173 89.0496C22.4173 89.0496 21.2619 90.7064 20.4593 91.0711C19.6566 91.4358 19.6295 91.6834 18.689 91.719C17.7485 91.7546 17.3019 92.105 17.3019 92.105C17.3019 92.105 16.8796 92.8802 17.1036 93.1545C17.3276 93.4289 17.7426 93.6557 17.7426 93.6557Z" fill="#263238"/>
<path d="M17.0925 93.1392C17.2919 93.4479 17.7408 93.6689 17.7408 93.6689C17.7408 93.6689 19.5168 94.1663 21.0392 94.0191C22.5616 93.872 24.8047 93.3089 25.6301 93.1115C26.4554 92.9142 28.8671 93.1742 29.0268 92.3288C29.0729 92.0975 29.0569 91.8612 28.9807 91.6201C28.9807 91.6201 26.5493 92.3086 25.3706 92.3025C24.192 92.2965 21.6917 93.1541 20.3606 93.1601C19.0295 93.166 17.5271 92.8607 17.5271 92.8607L17.0872 92.6303C17.0374 92.8248 16.9727 92.9597 17.0925 93.1392Z" fill="#455A64"/>
<path d="M20.7553 90.837C20.7786 90.8352 20.7938 91.0501 20.9232 91.2712C21.0488 91.4945 21.2267 91.6159 21.2135 91.6352C21.2069 91.6543 20.9935 91.5532 20.8555 91.31C20.7151 91.0683 20.7355 90.8331 20.7553 90.837Z" fill="white"/>
<path d="M21.514 90.1465C21.5374 90.1423 21.5733 90.3989 21.7517 90.6501C21.9257 90.9045 22.154 91.0268 22.142 91.0474C22.1378 91.0669 21.8758 90.968 21.6876 90.6947C21.4964 90.4237 21.4942 90.1436 21.514 90.1465Z" fill="white"/>
<path d="M22.0522 89.4898C22.0721 89.4786 22.1851 89.6544 22.3611 89.838C22.5358 90.023 22.7057 90.1446 22.6935 90.1639C22.6839 90.1817 22.4876 90.0853 22.3046 89.8917C22.1205 89.6993 22.0339 89.4984 22.0522 89.4898Z" fill="white"/>
<path d="M26.6851 91.1996C26.6866 91.21 26.5669 91.2369 26.371 91.2661C26.1753 91.2953 25.9032 91.3252 25.6016 91.3421C25.2998 91.3588 25.0261 91.3592 24.8283 91.3518C24.6304 91.3445 24.5085 91.331 24.5088 91.3205C24.5094 91.2979 24.9973 91.2982 25.5972 91.2641C26.1971 91.2316 26.6819 91.1772 26.6851 91.1996Z" fill="white"/>
<path d="M36.1779 71.2716L36.9747 70.8017L31.1607 62.168L30.4141 62.7174L36.1779 71.2716Z" fill="#455A64"/>
<path d="M37.4903 66.9116C37.5225 66.8984 37.2372 66.1213 36.8531 65.1759C36.4689 64.2302 36.1314 63.4744 36.0992 63.4875C36.0669 63.5006 36.3522 64.2776 36.7364 65.2233C37.1205 66.1687 37.458 66.9246 37.4903 66.9116Z" fill="#455A64"/>
<path d="M64.5131 85.1747C64.5131 85.1747 60.4001 81.5354 57.8409 80.6824C55.2817 79.8293 52.7966 79.9777 52.7224 79.8293C52.6482 79.6809 52.4628 76.417 52.4628 76.417L46.5654 76.8621C46.5654 76.8621 47.604 83.0561 48.7538 84.0947C49.9036 85.1332 59.5471 86.283 61.9208 87.507L64.5131 85.1747Z" fill="#FFBF9D"/>
<path d="M51.1391 55.2119C51.4859 55.2697 53.226 59.049 53.226 61.8812C53.226 64.7133 53.9389 74.7395 53.9389 75.4331C53.9389 76.1266 53.9389 78.034 53.9389 77.9184C53.9389 77.8028 45.0957 77.9235 45.0957 77.9235L42.2373 61.0706L51.1391 55.2119Z" fill="#263238"/>
<path d="M50.2863 56.5625C50.8855 56.9975 51.3412 59.6901 51.6105 62.1655C51.8797 64.6409 52.4988 77.0215 52.4988 77.0215H49.441C49.441 77.0215 49.9431 60.2972 48.5889 58.4635L49.9948 56.5625" fill="#D93151"/>
<path d="M62.3826 94.9234C62.3826 94.9234 63.7449 93.6801 64.4262 92.3107C65.1074 90.9413 65.8173 88.7402 66.0868 87.9355C66.3564 87.1309 67.8539 85.2226 67.2213 84.6396C66.5886 84.0565 63.0478 83.875 63.0478 83.875C63.0478 83.875 63.7183 84.5702 63.2555 85.2694C62.7926 85.9685 61.574 87.133 61.574 87.133C61.574 87.133 60.2715 87.1672 59.985 87.5569C59.6985 87.9464 60.9501 88.5191 60.9501 88.5191C60.9501 88.5191 61.7439 90.3764 61.6283 91.2504C61.5127 92.1244 61.7085 92.2785 61.2408 93.0952C60.773 93.9119 60.8338 94.4764 60.8338 94.4764C60.8338 94.4764 61.2678 95.245 61.6191 95.2002C61.9705 95.1555 62.3826 94.9234 62.3826 94.9234Z" fill="#263238"/>
<path d="M61.5996 95.2015C61.9671 95.1957 62.3922 94.932 62.3922 94.932C62.3922 94.932 63.7545 93.6886 64.4357 92.3192C65.1169 90.9498 65.8268 88.7487 66.0964 87.944C66.3659 87.1394 67.8634 85.2312 67.2308 84.648C67.0589 84.4865 66.8837 84.4223 66.6388 84.3594C66.6388 84.3594 65.9019 86.739 65.2727 87.7358C64.6435 88.7325 64.0473 91.3076 63.3476 92.44C62.6479 93.5724 61.5934 94.6853 61.5934 94.6853L61.165 94.9365C61.3037 95.0817 61.3839 95.208 61.5996 95.2015Z" fill="#455A64"/>
<path d="M61.5857 90.8758C61.5966 90.8552 61.7869 90.9561 62.0429 90.9633C62.2989 90.975 62.496 90.8883 62.5054 90.9098C62.5181 90.9255 62.3194 91.053 62.04 91.0413C61.7606 91.0325 61.5719 90.8906 61.5857 90.8758Z" fill="white"/>
<path d="M61.4019 89.8667C61.4107 89.8446 61.6473 89.95 61.9549 89.9317C62.2629 89.9187 62.4875 89.7898 62.4985 89.8109C62.513 89.8248 62.2903 89.9946 61.9589 90.0096C61.6277 90.0284 61.3889 89.8819 61.4019 89.8667Z" fill="white"/>
<path d="M61.1299 89.0625C61.131 89.0397 61.3399 89.0369 61.5889 88.9848C61.8383 88.9346 62.0314 88.8548 62.0413 88.8754C62.0514 88.8929 61.8657 89.0084 61.6045 89.0612C61.3438 89.1156 61.1276 89.0826 61.1299 89.0625Z" fill="white"/>
<path d="M65.0331 86.0372C65.0427 86.0415 65.0022 86.1573 64.9233 86.3389C64.8444 86.5204 64.7257 86.7671 64.5803 87.032C64.4347 87.2968 64.2901 87.5292 64.1791 87.6931C64.0682 87.8571 63.9921 87.9534 63.9834 87.9475C63.9645 87.935 64.2232 87.5213 64.5119 86.9944C64.8019 86.4682 65.0124 86.0281 65.0331 86.0372Z" fill="white"/>
<path d="M53.9385 77.918V77.0215H44.9424L45.0953 77.9231L53.9385 77.918Z" fill="#455A64"/>
<path d="M23.5488 64.3131C25.7426 62.1193 25.7426 58.5624 23.5488 56.3685C21.3549 54.1747 17.798 54.1747 15.6042 56.3685C13.4103 58.5624 13.4103 62.1193 15.6042 64.3131C17.798 66.507 21.3549 66.507 23.5488 64.3131Z" fill="#D93151"/>
<path d="M23.2871 58.5122C23.4724 58.4657 23.6619 58.4531 23.8424 58.4729C23.8537 58.4742 23.865 58.4748 23.8762 58.4765L23.9096 58.4824L23.9758 58.4943C24.0193 58.5043 24.0621 58.5163 24.1042 58.5283C24.1878 58.5552 24.2664 58.59 24.3404 58.6289C24.414 58.6685 24.4819 58.7138 24.5456 58.761C24.608 58.8098 24.6668 58.86 24.7197 58.9132C24.9186 59.1115 25.0528 59.3297 25.1478 59.5294C25.1687 59.6752 25.1839 59.8228 25.1934 59.972C25.15 59.8682 25.0988 59.7551 25.0354 59.636C24.9831 59.5386 24.9231 59.4372 24.8498 59.3377C24.7764 59.2384 24.6917 59.1386 24.5915 59.0476C24.5418 59.0016 24.4874 58.9591 24.4307 58.9179C24.3728 58.8785 24.3121 58.841 24.2474 58.809C24.1823 58.7778 24.1143 58.7503 24.043 58.7297C24.007 58.7209 23.9707 58.7119 23.9338 58.7044L23.8775 58.6961L23.8492 58.6918C23.8397 58.6906 23.83 58.6904 23.8204 58.6897C23.6672 58.6774 23.5054 58.6916 23.3449 58.7359C23.3263 58.7411 23.3076 58.7467 23.289 58.7526C23.2588 58.681 23.2277 58.6095 23.1953 58.5382C23.2259 58.5289 23.2564 58.52 23.2871 58.5122Z" fill="#263238"/>
<path d="M22.875 58.9448C22.5722 59.1304 22.3177 59.4195 22.1052 59.7549C21.8921 60.0909 21.7194 60.4754 21.5401 60.8712C21.3617 61.2667 21.1923 61.6569 21.0194 62.0311C20.9329 62.2181 20.8464 62.4015 20.7573 62.5795C20.7137 62.6688 20.6677 62.756 20.6234 62.8427C20.5772 62.9286 20.533 63.0142 20.486 63.0971C20.1199 63.7657 19.7041 64.3256 19.2963 64.7374C18.8897 65.1522 18.4941 65.4158 18.2089 65.5665C18.1385 65.606 18.0726 65.635 18.0161 65.6607C17.9877 65.6734 17.9618 65.6856 17.9374 65.6953C17.9326 65.697 17.9083 65.7044 17.9037 65.7061C17.8769 65.6978 17.8509 65.6899 17.8242 65.6812C17.8256 65.6803 17.8462 65.6729 17.8476 65.672L17.9081 65.6366C17.9302 65.6233 17.9537 65.6076 17.9797 65.5916C18.0313 65.5591 18.0919 65.5239 18.1567 65.4786C18.4192 65.3046 18.7845 65.0274 19.1614 64.6097C19.5397 64.194 19.926 63.6428 20.2732 62.9816C20.3178 62.8997 20.3598 62.8148 20.4039 62.7299C20.4461 62.6439 20.4901 62.5577 20.532 62.469C20.6174 62.2927 20.701 62.1104 20.7852 61.9242C20.9517 61.5492 21.1241 61.1609 21.3006 60.7632C21.4805 60.3666 21.6583 59.9729 21.8884 59.6162C21.9462 59.5276 22.0057 59.4406 22.0705 59.3581C22.1017 59.3161 22.1362 59.2766 22.1691 59.2364C22.204 59.1976 22.2374 59.158 22.274 59.1213C22.3447 59.046 22.4212 58.9768 22.5004 58.9116C22.5408 58.8802 22.5804 58.8482 22.6225 58.8202C22.6435 58.806 22.6636 58.7909 22.685 58.7777L22.7489 58.7381C22.8151 58.698 22.8831 58.6624 22.9524 58.6309C22.9855 58.7034 23.0172 58.7761 23.0481 58.8489C22.9893 58.8772 22.9315 58.9091 22.875 58.9448Z" fill="#263238"/>
<path d="M14.659 62.9892C14.6746 62.9645 14.6914 62.9378 14.7093 62.9094C14.7276 62.8811 14.748 62.8517 14.7694 62.8203L14.9133 62.6127C14.9672 62.5376 15.028 62.4577 15.0926 62.3713C15.1564 62.2842 15.2298 62.1952 15.306 62.0994C15.3815 62.0029 15.4662 61.9051 15.5541 61.8015C15.641 61.6968 15.7383 61.5928 15.8371 61.482C15.8862 61.4262 15.9394 61.3723 15.9922 61.3161C16.0456 61.2603 16.0993 61.2029 16.1552 61.1457C16.2118 61.0892 16.2694 61.0317 16.328 60.9734C16.3574 60.9443 16.3866 60.9146 16.4168 60.8854L16.509 60.7982C16.5711 60.7398 16.6334 60.6798 16.698 60.6205C16.7632 60.562 16.8294 60.5026 16.8964 60.4425C16.9627 60.3817 17.033 60.3237 17.103 60.2637C17.1734 60.2042 17.2436 60.1428 17.3175 60.0843C17.3908 60.0251 17.4649 59.9653 17.5397 59.9049C17.616 59.8464 17.6931 59.7873 17.7708 59.7277C18.0839 59.492 18.4168 59.2596 18.7672 59.0361C19.1188 58.8142 19.4711 58.612 19.8177 58.4291C19.9048 58.3842 19.9911 58.3396 20.0766 58.2955C20.1631 58.2536 20.2488 58.212 20.3336 58.1709C20.418 58.1289 20.5035 58.0916 20.5874 58.0533C20.6715 58.0156 20.7539 57.9767 20.8372 57.9425C20.9201 57.9076 21.002 57.873 21.0828 57.8389C21.164 57.8057 21.2448 57.7749 21.3241 57.7436L21.4423 57.6974C21.4816 57.6824 21.5209 57.6687 21.5598 57.6545C21.6375 57.6264 21.714 57.5988 21.7893 57.5716C21.8648 57.5453 21.9397 57.5213 22.0129 57.4968C22.0863 57.4729 22.1577 57.4478 22.2291 57.4271C22.2437 57.4228 22.258 57.4184 22.2725 57.4141L22.2767 57.4201L22.3251 57.4957L22.3833 57.5865C22.3531 57.5969 22.3228 57.6073 22.292 57.6176C22.2224 57.6405 22.1528 57.6677 22.0812 57.6936C22.0098 57.7201 21.9368 57.7461 21.8631 57.7741C21.7897 57.803 21.7151 57.8323 21.6392 57.8622C21.6013 57.8772 21.5629 57.8917 21.5246 57.9074C21.4865 57.9234 21.448 57.9395 21.4093 57.9558C21.3319 57.9885 21.253 58.0206 21.1738 58.0549L20.934 58.1617C20.8526 58.1968 20.7721 58.2365 20.6899 58.275C20.608 58.314 20.5244 58.3519 20.4419 58.3944C20.3589 58.4358 20.2751 58.4778 20.1905 58.5201C20.1068 58.5643 20.0224 58.609 19.9372 58.6541C19.5978 58.8371 19.2523 59.0375 18.9065 59.2557C18.5619 59.4755 18.2335 59.7026 17.9234 59.9316C17.8464 59.9895 17.77 60.0468 17.6943 60.1036C17.6199 60.1621 17.5463 60.2201 17.4735 60.2775C17.3999 60.334 17.33 60.3935 17.2598 60.4509C17.19 60.5089 17.1198 60.5648 17.0534 60.6234L16.8546 60.7949C16.7898 60.8519 16.7272 60.9096 16.6646 60.9657L16.5717 61.0494C16.5412 61.0773 16.5117 61.1059 16.482 61.1337C16.4227 61.1897 16.3643 61.2447 16.3069 61.2988C16.2502 61.3535 16.1956 61.4085 16.1412 61.4618C16.0873 61.5155 16.033 61.5669 15.9826 61.6201C15.8813 61.7259 15.7811 61.8247 15.691 61.9242C15.5997 62.0227 15.5114 62.1154 15.4319 62.2066C15.3517 62.2973 15.2739 62.381 15.2054 62.463C15.1357 62.544 15.0708 62.6194 15.0111 62.6889C14.9523 62.7591 14.8986 62.8234 14.8502 62.8812C14.8258 62.9099 14.8028 62.9371 14.7811 62.9626C14.7598 62.9884 14.7399 63.0125 14.7214 63.0349C14.7087 63.0501 14.6888 63.0801 14.6772 63.0937C14.6644 63.0708 14.6483 63.0417 14.6357 63.0186C14.6398 63.0121 14.6548 62.9961 14.659 62.9892Z" fill="#263238"/>
<path d="M22.5283 57.3379C22.5653 57.3272 22.6021 57.3169 22.6384 57.3074C22.7686 57.272 22.8921 57.2371 23.0106 57.2099C23.1287 57.1819 23.2396 57.1533 23.3447 57.1327C23.4495 57.1111 23.5468 57.0902 23.6369 57.0734C23.7273 57.0582 23.8098 57.0442 23.8841 57.0316C23.9212 57.0257 23.9562 57.0198 23.9893 57.0152C24.0225 57.0112 24.0534 57.0073 24.0822 57.0038L24.0984 57.002C24.1142 57.0234 24.1299 57.045 24.1453 57.0667C24.1299 57.0709 24.1139 57.0752 24.0968 57.0797C24.0689 57.0869 24.0388 57.0946 24.0067 57.1029C23.9747 57.1116 23.9406 57.1209 23.9045 57.1307C23.8322 57.1498 23.7519 57.1711 23.664 57.1943C23.5765 57.2187 23.4814 57.2453 23.3793 57.2738C23.2768 57.3009 23.1688 57.3356 23.0536 57.3695C22.9381 57.4025 22.8177 57.443 22.6907 57.4835C22.6719 57.4893 22.6529 57.4957 22.6339 57.5018C22.6023 57.4529 22.5709 57.404 22.5396 57.3554L22.5283 57.3379Z" fill="#263238"/>
<path d="M21.4905 56.4062C21.4666 56.4146 21.4426 56.4229 21.4183 56.4309C21.3602 56.4501 21.3008 56.4665 21.2402 56.4849C21.1795 56.5019 21.1172 56.5177 21.0538 56.534C20.7997 56.5952 20.5242 56.6421 20.2338 56.6745C19.9433 56.7064 19.6378 56.7253 19.3227 56.7358C19.0074 56.7472 18.6822 56.7505 18.3514 56.7594C18.1859 56.7638 18.0229 56.7693 17.8628 56.7777C17.7026 56.7857 17.5453 56.7964 17.3915 56.8111C17.0837 56.839 16.7901 56.8841 16.5152 56.9454C16.2405 57.0085 15.9864 57.0892 15.7568 57.1864C15.5277 57.2844 15.3236 57.3968 15.1474 57.5143C14.9713 57.6319 14.8224 57.7538 14.7011 57.8708C14.6707 57.9001 14.6432 57.9299 14.6155 57.9577C14.6019 57.9719 14.5878 57.9851 14.5754 57.9993L14.539 58.0411C14.5154 58.0685 14.4916 58.0939 14.4707 58.1195L14.4124 58.1937C14.3816 58.2304 14.3576 58.2661 14.335 58.298C14.3972 58.1384 14.4666 57.9825 14.5426 57.8304C14.5591 57.8101 14.5759 57.7895 14.594 57.769C14.7115 57.6357 14.86 57.4965 15.0392 57.362C15.2184 57.2278 15.4288 57.0991 15.667 56.9867C15.9055 56.875 16.1728 56.7814 16.4583 56.7089C16.7444 56.6381 17.0493 56.586 17.3658 56.5538C17.5241 56.5369 17.6853 56.5245 17.8485 56.5155C18.0119 56.506 18.1773 56.5 18.3443 56.4956C18.6786 56.4865 19.0032 56.4851 19.315 56.4773C19.627 56.4704 19.9262 56.4569 20.2096 56.4325C20.4927 56.4075 20.7595 56.3701 21.0058 56.3204C21.1217 56.296 21.2336 56.2701 21.3396 56.2412L21.3704 56.2744C21.4106 56.3176 21.4506 56.3616 21.4905 56.4062Z" fill="#263238"/>
<path d="M21.6698 56.1293C21.7647 56.0888 21.8506 56.0424 21.9245 55.9897C21.998 55.9372 22.0627 55.8787 22.1104 55.8178C22.2082 55.6942 22.2543 55.5585 22.2692 55.4474C22.2716 55.4301 22.2728 55.4136 22.2735 55.3975C22.3065 55.4154 22.3392 55.4338 22.3717 55.4523L22.3718 55.4535C22.3713 55.5838 22.3348 55.7465 22.2299 55.9045C22.1243 56.0624 21.9534 56.1982 21.748 56.2987C21.7417 56.3019 21.735 56.3047 21.7287 56.3078C21.6836 56.2577 21.6383 56.2084 21.5928 56.1601C21.6191 56.1502 21.6448 56.1399 21.6698 56.1293Z" fill="#263238"/>
<path d="M22.2773 57.42L22.2731 57.414L22.2263 57.3465C21.9943 57.0061 21.7462 56.6921 21.4906 56.4058C21.4509 56.3612 21.411 56.3172 21.3708 56.2739L21.3401 56.2408C21.3132 56.2119 21.2864 56.183 21.2598 56.1543C21.2222 56.1156 21.1849 56.0769 21.1471 56.0395C21.072 55.9639 20.9963 55.8913 20.9202 55.8217C20.7682 55.6821 20.6139 55.5548 20.4579 55.4419C20.3024 55.3283 20.1441 55.2312 19.9868 55.1482C19.9476 55.1271 19.9076 55.1088 19.8688 55.0891C19.8296 55.0723 19.7915 55.0551 19.7526 55.0395C19.7128 55.0253 19.6739 55.0104 19.6346 54.9969L19.5166 54.9601C19.3593 54.9152 19.2059 54.882 19.0597 54.8552C18.9132 54.8307 18.774 54.8108 18.6431 54.7995L18.625 54.798C18.8409 54.7607 19.0609 54.7355 19.2845 54.7236C19.3757 54.7399 19.469 54.759 19.5648 54.7827L19.6912 54.8174C19.7336 54.8304 19.7764 54.845 19.8197 54.8591C19.8628 54.8748 19.9063 54.8927 19.9501 54.9101C19.9919 54.9296 20.035 54.9479 20.0771 54.9691C20.2463 55.0521 20.4162 55.1505 20.5822 55.2658C20.7487 55.3804 20.9126 55.5099 21.073 55.6516C21.1533 55.7223 21.2329 55.796 21.3115 55.8724C21.3512 55.9104 21.39 55.9495 21.4294 55.9887L21.5452 56.1097C21.5611 56.1263 21.5768 56.1434 21.5926 56.1602C21.6382 56.2086 21.6835 56.2579 21.7285 56.308C21.9743 56.5812 22.2128 56.8794 22.4364 57.2023L22.4893 57.2777L22.5283 57.3377L22.5397 57.3552C22.5712 57.4038 22.6029 57.4526 22.6347 57.5016L22.641 57.5112C22.6758 57.5629 22.7061 57.6177 22.7389 57.6713C22.771 57.7252 22.8033 57.7793 22.8358 57.8336C22.8662 57.8891 22.8967 57.9448 22.9274 58.0007C22.9427 58.0286 22.958 58.0567 22.9733 58.0847C22.9888 58.1127 23.0039 58.1409 23.0179 58.1698C23.0465 58.2273 23.0751 58.2849 23.1039 58.3427C23.1183 58.3717 23.1326 58.4007 23.147 58.4297C23.1603 58.4592 23.1737 58.4888 23.187 58.5185C23.1901 58.5252 23.1929 58.5319 23.1959 58.5386C23.2284 58.6099 23.2594 58.6814 23.2896 58.753C23.4571 59.1497 23.5915 59.5508 23.6911 59.9481C23.8113 60.4238 23.8789 60.8948 23.9045 61.3447C23.9301 61.7948 23.914 62.2241 23.8683 62.6218C23.8214 63.0195 23.7445 63.3852 23.6542 63.7127C23.5798 63.9911 23.4883 64.2396 23.3989 64.4602C23.3208 64.5324 23.2407 64.6027 23.1586 64.6704C23.1776 64.6226 23.1968 64.5736 23.2162 64.5226C23.305 64.2743 23.402 63.9897 23.4762 63.6666C23.553 63.3444 23.6174 62.9868 23.6539 62.5994C23.689 62.2122 23.6967 61.7956 23.6655 61.3601C23.6342 60.9248 23.5639 60.4705 23.4442 60.0106C23.3444 59.6247 23.2119 59.2349 23.048 58.8486C23.0171 58.7758 22.9855 58.7031 22.9523 58.6306L22.9507 58.6269L22.912 58.5408C22.898 58.5127 22.8841 58.4845 22.8702 58.4565C22.8424 58.4003 22.8146 58.3443 22.7869 58.2886C22.7735 58.2605 22.7589 58.233 22.7438 58.2059L22.6995 58.1242L22.6111 57.9618L22.5176 57.8038C22.486 57.7516 22.4569 57.6982 22.4233 57.6478L22.3839 57.5864L22.3257 57.4957L22.2773 57.42Z" fill="#263238"/>
<path d="M30.8205 38.3955C30.7297 38.6087 29.4013 39.6716 29.8771 43.1562L28.456 49.8353L21.1221 52.1051L21.3481 54.2309C21.3481 54.2309 29.8771 55.1644 31.7956 53.2459C33.714 51.3275 33.5009 46.5351 33.5009 46.5351L30.8205 38.3955Z" fill="#FFBF9D"/>
<path d="M23.6333 51.5879C23.6333 51.5879 21.2847 52.0152 20.5177 52.2709C19.7507 52.5265 16.8107 54.4865 16.8107 54.4865C16.8107 54.4865 14.0493 57.7232 14.241 57.851C14.4327 57.9788 14.6306 58.1356 14.8863 57.9652C15.1419 57.7947 15.8946 56.7022 15.9159 56.7235C15.9372 56.7448 15.362 58.337 15.5111 58.3718C15.6603 58.4066 15.7242 58.5983 16.1929 58.2148C16.6616 57.8313 16.9598 56.5105 17.0237 56.5105C17.0877 56.5105 18.7707 55.2961 18.7707 55.2961C18.7707 55.2961 17.6842 56.3613 18.0464 56.7448C18.4085 57.1283 18.6339 56.7192 18.9748 56.5488C19.3157 56.3784 20.8799 55.2109 21.1142 54.6783C21.3486 54.1457 21.3486 54.2309 21.3486 54.2309L22.4446 54.2522L23.6333 51.5879Z" fill="#FFBF9D"/>
<path d="M19.2448 54.9717C19.2328 54.9402 19.057 54.9831 18.8931 55.126C18.7283 55.268 18.6608 55.4359 18.6903 55.4522C18.7209 55.4709 18.8275 55.3482 18.9756 55.2212C19.1223 55.0927 19.259 55.0047 19.2448 54.9717Z" fill="#FF9A6C"/>
<path d="M29.4601 50.2217C29.483 50.198 29.2916 49.9925 28.9791 49.8582C28.6672 49.7218 28.3865 49.7227 28.3848 49.7557C28.3804 49.792 28.6375 49.8458 28.9289 49.9738C29.2215 50.0989 29.4366 50.2498 29.4601 50.2217Z" fill="#FF9A6C"/>
<path d="M26.3955 27.4459C25.8736 27.6431 25.2278 27.4298 24.926 26.9606C24.8352 26.8194 24.7728 26.6526 24.79 26.4855C24.8072 26.3185 24.9181 26.1548 25.0801 26.1108C24.8278 26.0099 24.6098 25.8125 24.5101 25.5598C24.4104 25.3069 24.4404 25.0005 24.6092 24.7876C24.7779 24.5745 25.0873 24.476 25.34 24.5759C25.2704 24.2907 25.3821 23.9694 25.6137 23.7891L26.8412 23.7957L26.3955 27.4459Z" fill="#263238"/>
<path d="M31.3089 39.432L30.123 35.8233C30.123 35.8233 27.5922 35.9728 27.0319 33.5315C26.7613 32.3524 26.4016 29.8792 26.1021 27.637C25.78 25.2263 27.3634 22.9729 29.7404 22.4582L29.9766 22.407C32.5555 22.0042 34.3383 23.9694 34.6696 26.5586L35.6431 36.04L33.438 39.5355L31.3089 39.432Z" fill="#FFBF9D"/>
<path d="M30.123 35.8237C30.123 35.8237 31.6942 35.6192 33.1682 34.4541C33.1682 34.4541 32.7565 36.1384 30.2662 36.4469L30.123 35.8237Z" fill="#FF9A6C"/>
<path d="M27.4583 29.7528C27.4917 29.9388 27.6769 30.0639 27.8718 30.0325C28.0663 30.0011 28.1973 29.8253 28.1638 29.6393C28.1303 29.4533 27.9453 29.328 27.7507 29.3593C27.5558 29.3907 27.4249 29.5668 27.4583 29.7528Z" fill="#263238"/>
<path d="M26.888 28.7205C26.9412 28.7567 27.1635 28.5034 27.54 28.4228C27.9148 28.337 28.2328 28.4709 28.2635 28.416C28.2792 28.3912 28.2172 28.3185 28.0781 28.257C27.9409 28.1955 27.7207 28.1544 27.4865 28.2062C27.2526 28.2582 27.0742 28.3871 26.98 28.5C26.8835 28.6138 26.8622 28.7047 26.888 28.7205Z" fill="#263238"/>
<path d="M31.3918 31.2228C31.3277 31.2161 31.2522 31.5446 30.959 31.7941C30.6697 32.0473 30.3263 32.0804 30.3252 32.1433C30.3231 32.1725 30.4122 32.2072 30.5638 32.1953C30.7139 32.1844 30.9271 32.1161 31.1088 31.9595C31.29 31.8027 31.386 31.6046 31.4154 31.4605C31.4463 31.3146 31.4219 31.2244 31.3918 31.2228Z" fill="#263238"/>
<path d="M30.7054 29.1756C30.7388 29.3616 30.9239 29.4866 31.1188 29.4553C31.3134 29.424 31.4444 29.2481 31.4109 29.062C31.3775 28.8761 31.1923 28.7509 30.9977 28.7821C30.8028 28.8134 30.6719 28.9896 30.7054 29.1756Z" fill="#263238"/>
<path d="M30.6007 27.99C30.654 28.0262 30.8768 27.7728 31.2529 27.6924C31.6276 27.6066 31.9456 27.7404 31.9765 27.6855C31.9921 27.6608 31.9305 27.5879 31.7909 27.5266C31.6537 27.4649 31.4336 27.424 31.1995 27.4757C30.9655 27.5276 30.787 27.6566 30.6928 27.7694C30.5967 27.8832 30.5752 27.9742 30.6007 27.99Z" fill="#263238"/>
<path d="M29.8401 31.0758C29.8372 31.054 29.5946 31.0642 29.2053 31.0978C29.1071 31.1087 29.012 31.1093 28.9816 31.0472C28.944 30.9827 28.9618 30.8705 28.9841 30.7486C29.024 30.4967 29.0658 30.2325 29.1097 29.9557C29.2787 28.8289 29.3788 27.9108 29.3334 27.9043C29.2879 27.898 29.1141 28.8061 28.9452 29.9329C28.9058 30.2103 28.8681 30.4747 28.8324 30.7276C28.8197 30.8447 28.784 30.982 28.8642 31.1154C28.9057 31.1816 28.9875 31.2184 29.0526 31.2216C29.1182 31.2271 29.1725 31.2165 29.2206 31.209C29.6064 31.1469 29.8432 31.0974 29.8401 31.0758Z" fill="#263238"/>
<path d="M30.1845 26.5376C30.2438 26.6318 30.6089 26.502 31.0617 26.4597C31.5137 26.4081 31.8976 26.4603 31.9363 26.3559C31.9529 26.3063 31.8701 26.2236 31.7047 26.1557C31.5406 26.0877 31.2927 26.043 31.0214 26.0709C30.7502 26.0994 30.5167 26.194 30.3701 26.2942C30.2223 26.3945 30.1581 26.4925 30.1845 26.5376Z" fill="#263238"/>
<path d="M26.7906 27.6026C26.8752 27.6738 27.1151 27.5289 27.4259 27.4573C27.734 27.3747 28.0138 27.39 28.0551 27.2875C28.0724 27.2384 28.0123 27.1618 27.8795 27.1059C27.7485 27.0499 27.5441 27.0252 27.3314 27.078C27.1188 27.1312 26.95 27.2488 26.8605 27.3598C26.7695 27.4714 26.7524 27.5673 26.7906 27.6026Z" fill="#263238"/>
<path d="M26.0951 26.4631C26.0951 26.4631 26.4088 24.7904 27.0705 24.2726C27.8715 23.6457 28.4695 24.5446 29.2707 24.1216C30.0719 23.6984 30.8361 23.0979 31.8504 23.5684C32.9606 24.0834 32.6233 24.6863 32.9175 25.7597C34.11 30.1114 35.1838 31.1825 34.9634 29.0588C34.9392 28.8261 35.5307 28.5089 35.4163 27.5285C35.2679 26.2574 34.9883 24.7354 34.5192 23.9121C34.1237 23.2182 33.5877 22.7956 32.7036 22.3933C31.3078 21.7582 29.6528 22.0965 28.5561 22.4521C27.4594 22.8077 25.5773 24.5659 26.0951 26.4631Z" fill="#263238"/>
<path d="M34.7388 29.0353C34.6724 28.6542 34.9334 28.2854 35.3176 28.2396C35.7835 28.1841 36.3476 28.3334 36.5218 29.2832C36.8309 30.9683 35.0752 30.9309 35.0635 30.8832C35.0555 30.8507 34.8619 29.7416 34.7388 29.0353Z" fill="#FFBF9D"/>
<path d="M35.3677 30.1735C35.3741 30.1667 35.4009 30.1887 35.4546 30.2023C35.5071 30.2155 35.593 30.2156 35.6749 30.1666C35.8409 30.0686 35.939 29.7585 35.8915 29.4533C35.8677 29.2992 35.8087 29.1591 35.7322 29.0481C35.6582 28.9342 35.5627 28.8627 35.4701 28.8633C35.3772 28.859 35.3236 28.9243 35.3117 28.9755C35.2977 29.0267 35.3145 29.0584 35.3061 29.0629C35.3023 29.068 35.2648 29.0413 35.2656 28.9692C35.2665 28.9345 35.279 28.8911 35.3126 28.8515C35.347 28.8112 35.4034 28.7835 35.467 28.7788C35.5986 28.764 35.7375 28.8622 35.8216 28.9839C35.9129 29.1049 35.9828 29.2618 36.0095 29.4348C36.0609 29.7764 35.9454 30.1261 35.7147 30.2411C35.6018 30.2938 35.4964 30.2761 35.438 30.2458C35.3782 30.2137 35.3624 30.1776 35.3677 30.1735Z" fill="#FF9A6C"/>
<path d="M28.3183 25.6592C28.3142 25.66 28.3108 25.6622 28.3068 25.6632C28.297 25.666 28.287 25.6683 28.2773 25.6715L28.3183 25.6592Z" fill="#D93151"/>
<path d="M24.6238 23.4021C24.6822 22.9456 25.0228 22.5583 25.435 22.3536C25.8473 22.149 26.3223 22.1054 26.7819 22.1289C26.6234 21.5266 27.2057 20.934 27.8213 20.8396C28.4369 20.7453 29.0472 20.997 29.6193 21.2434C30.2763 20.6464 31.4491 20.7747 31.9617 21.4994C32.3593 21.1712 32.9352 21.0745 33.4181 21.255C33.9009 21.4355 34.2722 21.8863 34.3569 22.3948C34.7694 22.3967 35.1719 22.641 35.3639 23.0061C35.5559 23.3711 35.529 23.8412 35.2967 24.1821C35.612 24.3081 35.8264 24.6505 35.802 24.9891C35.7776 25.3277 35.5162 25.6358 35.1862 25.7152L33.7657 24.862C33.1211 25.1055 32.3109 24.6778 32.1485 24.0081C31.6755 24.3017 31.0246 24.2754 30.5768 23.9446C30.524 24.2794 30.2956 24.5813 29.9878 24.7233C29.6801 24.8653 29.3021 24.843 29.0132 24.6659C29.0554 25.1262 28.8097 25.6006 28.4095 25.8316C28.0092 26.0627 27.4755 26.0382 27.0981 25.7715C26.7419 26.2015 26.0417 26.2912 25.5886 25.9649C25.1355 25.6386 24.9986 24.9461 25.2935 24.472C24.8468 24.3609 24.5656 23.8587 24.6238 23.4021Z" fill="#263238"/>
<path d="M32.2854 24.2736C32.2798 24.2762 32.2927 24.3267 32.3432 24.4067C32.3937 24.4855 32.4863 24.5944 32.639 24.68C32.7887 24.7649 33.0076 24.8246 33.2435 24.7706C33.4753 24.7199 33.7183 24.5631 33.8528 24.3073L33.7549 24.3224C33.8607 24.4287 33.9944 24.5143 34.143 24.5678C34.4604 24.6809 34.8072 24.6429 35.0581 24.4914C35.3136 24.3411 35.4532 24.0995 35.5151 23.895C35.5777 23.6865 35.5646 23.5067 35.5396 23.3909C35.5122 23.2742 35.477 23.2173 35.4711 23.2198C35.4456 23.2216 35.5652 23.4809 35.4315 23.8675C35.3642 24.053 35.2284 24.2658 35.0007 24.3921C34.7775 24.5206 34.4673 24.5513 34.185 24.4506C34.0529 24.403 33.9353 24.3281 33.8419 24.2365L33.7818 24.1776L33.7439 24.2516C33.6317 24.4714 33.4214 24.6157 33.2187 24.6665C33.0136 24.7205 32.8183 24.6779 32.6757 24.6093C32.3849 24.4643 32.3023 24.2591 32.2854 24.2736Z" fill="#455A64"/>
<path d="M51.9158 54.6743C51.8423 54.9079 52.6884 57.1222 46.7065 59.2282C40.7247 61.3342 40.5889 61.3342 39.2983 60.4512C38.0077 59.5682 36.5414 58.2088 36.5414 58.2088C36.5414 58.2088 35.8291 57.938 36.1713 56.9192C36.5134 55.9003 35.3587 53.0474 35.3587 53.0474C35.3587 53.0474 33.3889 50.0068 32.0304 46.5347C30.6719 43.0626 30.8213 37.9682 30.8213 37.9682L31.5723 39.1812C31.6804 39.1812 35.5553 34.213 35.7688 34.2557C36.1085 34.3236 39.7423 33.7569 42.2373 35.7267C44.7322 37.6965 48.0881 45.455 48.0881 45.455C48.0881 45.455 52.4592 52.9472 51.9158 54.6743Z" fill="#263238"/>
<path d="M36.5412 58.2088C36.538 58.2118 36.5686 58.2495 36.6299 58.3189C36.7015 58.3976 36.7918 58.4967 36.9026 58.6183C37.1548 58.8623 37.5161 59.2259 38.0333 59.5894C38.5442 59.9584 39.2123 60.3252 40.0118 60.5765C40.4127 60.696 40.8442 60.7871 41.2975 60.8335C41.751 60.8777 42.2245 60.8746 42.7045 60.8291C43.6672 60.7395 44.5558 60.4782 45.3343 60.1853C46.1119 59.8856 46.7858 59.5544 47.3377 59.2539C47.89 58.9535 48.3252 58.6904 48.6218 58.5024C48.771 58.4098 48.884 58.3334 48.961 58.2821C49.0376 58.2303 49.0767 58.2014 49.0744 58.1977C49.0721 58.194 49.0285 58.2157 48.9476 58.2605C48.8554 58.313 48.7392 58.3791 48.5965 58.4603C48.2926 58.6352 47.8515 58.886 47.296 59.1752C46.7408 59.4644 46.0668 59.7853 45.2934 60.0766C44.5193 60.3611 43.6401 60.6155 42.6925 60.7036C42.2199 60.7484 41.7548 60.7524 41.3094 60.7106C40.864 60.6666 40.4402 60.5796 40.0454 60.4653C39.2585 60.2246 38.5961 59.872 38.0843 59.5163C37.5664 59.1663 37.1985 58.8153 36.937 58.5833C36.8197 58.4688 36.7242 58.3755 36.6483 58.3014C36.5813 58.2379 36.5444 58.2059 36.5412 58.2088Z" fill="#455A64"/>
<path d="M42.5466 46.7724C42.5466 46.7724 39.3345 46.1942 37.6736 43.9451C36.0126 41.6959 34.8846 36.5883 36.5589 35.4504C38.5645 34.0872 40.9914 34.1577 43.2328 36.7442C45.4741 39.3306 48.7302 45.585 42.5466 46.7724Z" fill="#455A64"/>
<path d="M38.7441 35.0615C38.7441 35.0615 41.2793 35.2427 42.7486 36.4465C44.2178 37.6503 45.9359 40.9284 45.2569 42.6877C44.5778 44.4471 43.5901 46.2374 40.8738 45.0953C38.1576 43.9533 36.7216 40.5216 36.3284 39.1199C35.9352 37.7182 36.1204 35.2445 38.7441 35.0615Z" fill="#FFBF9D"/>
<path d="M37.8846 57.3501C37.8819 57.3532 37.9026 57.3748 37.9447 57.4133C37.9878 57.4505 38.048 57.5105 38.1357 57.5753C38.3066 57.7105 38.5714 57.8883 38.928 58.0588C39.6296 58.4021 40.7649 58.6784 41.9907 58.392L42.1553 58.3536L42.0056 58.2759C41.8468 58.1935 41.6788 58.1065 41.5087 58.0182C40.2926 57.4027 39.1378 56.9604 38.2901 56.6844C37.8661 56.5459 37.5189 56.4471 37.2779 56.3834C37.0365 56.321 36.9017 56.2921 36.8994 56.3002C36.897 56.3088 37.0274 56.3538 37.2641 56.4305C37.5003 56.5085 37.8425 56.62 38.2613 56.7687C39.0988 57.0654 40.242 57.5183 41.4519 58.1307C41.6213 58.2183 41.7885 58.3047 41.9467 58.3864L41.9615 58.2703C40.772 58.552 39.6618 58.2996 38.963 57.9822C38.2511 57.6652 37.9004 57.3272 37.8846 57.3501Z" fill="#455A64"/>
<path d="M38.8451 52.3074C38.851 52.2731 38.1981 52.132 37.3869 51.9923C36.5755 51.8526 35.9132 51.7672 35.9073 51.8015C35.9014 51.8358 36.5542 51.9768 37.3656 52.1165C38.1767 52.2562 38.8392 52.3416 38.8451 52.3074Z" fill="#455A64"/>
<path d="M36.65 48.7907C36.9313 49.604 36.82 50.476 36.0131 50.7552C35.6156 50.8928 35.1417 50.8484 34.7517 50.6131L34.7114 49.6702C35.0215 49.8713 35.3767 49.926 35.6724 49.8237C36.0012 49.71 36.1249 49.4122 35.9889 49.0194C35.8626 48.6542 35.6256 48.4817 35.2527 48.6104L34.9523 48.7145L34.6974 47.977L34.8926 46.6516L33.6841 47.0698L33.374 46.1739L35.3611 45.4863L35.6114 46.2098L35.4002 47.6721C35.9588 47.633 36.4043 48.081 36.65 48.7907Z" fill="#D93151"/>
<path d="M40.9384 51.8867C40.9512 51.8544 39.3668 51.1951 37.3999 50.4143C35.4323 49.6332 33.8274 49.0265 33.8145 49.0589C33.8017 49.0912 35.3858 49.7504 37.3534 50.5314C39.3203 51.3122 40.9255 51.919 40.9384 51.8867Z" fill="#455A64"/>
<path d="M45.1416 62.1851C45.1416 62.1851 45.1103 64.9074 44.7588 66.1537C44.4073 67.3999 44.3115 67.4958 44.1197 67.7514C43.928 68.0071 43.6085 68.1988 43.225 68.039C43.225 68.039 43.0333 68.8379 42.6179 68.9338C42.2024 69.0296 41.9468 68.9338 41.9468 68.9338C41.9468 68.9338 41.6911 69.8605 41.2757 69.6687C40.8603 69.477 41.084 68.9657 41.084 68.3905C41.084 67.8154 41.3716 66.2176 41.2438 66.1856C41.116 66.1537 40.7325 67.368 40.7005 67.6875C40.6686 68.0071 40.7964 68.9338 40.4769 69.2853C40.1573 69.6368 39.9017 69.3811 39.9017 69.3811C39.9017 69.3811 39.5821 67.5917 39.7419 67.1762C39.9017 66.7608 39.8697 66.633 39.8697 66.633C39.8697 66.633 38.9111 67.2721 38.5596 66.601C38.5596 66.601 39.1348 66.0259 39.3265 65.6104C39.5182 65.195 40.5727 63.3736 40.7645 63.2777C40.9562 63.1818 42.3379 61.29 42.3379 61.29L45.1416 62.1851Z" fill="#FFBF9D"/>
<path d="M42.6128 66.549C42.5793 66.5393 42.3919 67.0885 42.1942 67.7754C41.9965 68.4626 41.8633 69.0273 41.8968 69.0369C41.9302 69.0465 42.1176 68.4974 42.3153 67.8103C42.513 67.1234 42.6462 66.5586 42.6128 66.549Z" fill="#FF9A6C"/>
<path d="M43.6098 66.6272C43.5768 66.6161 43.4573 66.9413 43.3429 67.3534C43.2286 67.7656 43.1635 68.1058 43.1975 68.1133C43.2315 68.1208 43.351 67.7957 43.4644 67.3871C43.5777 66.9786 43.6428 66.6383 43.6098 66.6272Z" fill="#FF9A6C"/>
<path d="M40.9845 64.2267C40.9828 64.2196 40.9405 64.2186 40.8735 64.2513C40.8065 64.2831 40.7228 64.3558 40.6498 64.4624C40.5098 64.6776 40.3531 64.9837 40.2104 65.3411C39.9242 66.0569 39.8643 66.6844 39.8965 66.687C39.9334 66.6935 40.0473 66.0878 40.3276 65.3873C40.4665 65.0387 40.6121 64.7241 40.725 64.5103C40.8395 64.2936 40.9903 64.2429 40.9845 64.2267Z" fill="#FF9A6C"/>
<path d="M39.4968 35.0661C39.7585 35.0778 42.8362 35.734 44.0691 38.6623C45.3021 41.5907 50.2854 50.9514 50.2854 51.8247C50.2854 52.6981 45.1051 61.5192 45.1051 62.3673C45.1051 62.6242 42.1609 61.5307 42.1609 61.5307L45.2849 51.8281C45.2849 51.8281 43.6582 48.5262 42.682 46.985C41.7059 45.4437 39.4968 42.4127 39.4968 42.4127C39.4968 42.4127 34.8218 40.1008 36.5685 36.6074C36.5685 36.6074 37.185 34.9634 39.4968 35.0661Z" fill="#FFBF9D"/>
<path d="M38.1731 41.7101C38.1677 41.7111 38.1778 41.8013 38.2618 41.9368C38.3431 42.0727 38.5084 42.2416 38.7509 42.3848C38.9914 42.533 39.3074 42.6412 39.6148 42.821C39.7684 42.9116 39.9113 43.0267 40.0326 43.1769C40.1554 43.3252 40.2636 43.4995 40.3813 43.6746C40.8477 44.3763 41.2758 45.0076 41.5909 45.4611C41.7485 45.6879 41.8778 45.8701 41.9695 45.9945C42.0612 46.1189 42.1154 46.1854 42.1226 46.1806C42.1298 46.1757 42.0895 46.1001 42.0103 45.9673C41.9312 45.8346 41.8132 45.6448 41.6651 45.4118C41.369 44.9457 40.9527 44.3066 40.4862 43.6048C40.369 43.4307 40.2593 43.2548 40.1274 43.0978C39.9976 42.9392 39.8359 42.8122 39.6735 42.7208C39.3464 42.538 39.0312 42.4406 38.7951 42.3075C38.556 42.1789 38.3919 42.0299 38.3022 41.909C38.2102 41.789 38.184 41.7058 38.1731 41.7101Z" fill="#FF9A6C"/>
<path d="M38.5225 35.0708C38.52 35.1035 39.1275 35.0205 40.0489 35.2817C40.5064 35.4125 41.0317 35.6385 41.5645 35.9739C42.0965 36.3096 42.6332 36.7574 43.1202 37.297C44.0952 38.383 44.6866 39.5926 45.0034 40.4901C45.1656 40.94 45.2647 41.3152 45.3283 41.5753C45.3926 41.8355 45.4227 41.9811 45.4329 41.9793C45.4372 41.9785 45.4346 41.9413 45.4255 41.871C45.4161 41.8008 45.4029 41.6969 45.3762 41.5649C45.327 41.3003 45.2405 40.9189 45.0877 40.4611C44.7894 39.5476 44.2041 38.3157 43.2137 37.2126C42.7191 36.6644 42.1709 36.2116 41.6261 35.8755C41.0805 35.5395 40.5412 35.3178 40.0726 35.1957C39.6033 35.0728 39.2097 35.0443 38.9402 35.0411C38.8052 35.04 38.7005 35.0518 38.6298 35.0558C38.5591 35.0614 38.5222 35.0664 38.5225 35.0708Z" fill="#FF9A6C"/>
<path d="M74.6467 54.3926L86.4238 54.1555C86.4238 54.1555 73.8608 49.9275 74.6467 54.3926Z" fill="#263238"/>
<path d="M73.2543 70.999C73.2543 70.999 73.4943 74.727 73.4779 75.4937C73.4408 77.2387 73.0128 81.4535 73.0128 81.4535C72.7668 82.0868 70.7785 86.2216 70.2845 87.9743C69.7904 89.7271 70.0022 91.3449 69.9614 92.2794C69.9205 93.2139 69.2656 97.3141 69.2656 97.3141L72.2497 98.1974C72.2497 98.1974 72.4732 95.2133 74.5674 90.3502C75.9846 87.0592 77.5589 83.9808 78.1637 81.8217L78.1872 81.8234C78.1872 81.8234 81.7961 73.4687 81.7449 70.9022C81.6937 68.3357 73.2543 70.999 73.2543 70.999Z" fill="#AE7461"/>
<path d="M69.2394 96.8423L69.7331 94.2129L73.2053 94.2396C73.2053 94.2396 72.2641 97.4936 72.4127 98.2356C72.5613 98.9776 71.5642 98.9478 71.5642 98.9478L68.9111 98.463L69.2394 96.8423Z" fill="#455A64"/>
<path d="M74.5402 104.771C74.5402 104.771 72.9526 104.386 71.84 103.613C70.7275 102.841 69.2382 101.434 68.6859 100.924C68.1337 100.415 66.1578 99.5713 66.4004 98.849C66.6431 98.1266 69.3147 96.4766 69.3147 96.4766C69.3147 96.4766 69.0905 97.3021 69.7478 97.6477C70.4052 97.9932 71.8476 98.3779 71.8476 98.3779C71.8476 98.3779 72.8734 97.8493 73.2619 98.0297C73.6504 98.2101 72.9227 99.1881 72.9227 99.1881C72.9227 99.1881 73.0981 100.968 73.5603 101.598C74.0225 102.227 73.9363 102.43 74.6475 102.865C75.3588 103.3 75.5521 103.764 75.5521 103.764C75.5521 103.764 75.5428 104.545 75.2509 104.66C74.9591 104.775 74.5402 104.771 74.5402 104.771Z" fill="#263238"/>
<path d="M75.2665 104.653C74.9787 104.805 74.5363 104.782 74.5363 104.782C74.5363 104.782 72.9487 104.397 71.8361 103.624C70.7236 102.851 69.2343 101.445 68.682 100.935C68.1298 100.425 66.1539 99.582 66.3965 98.8596C66.4611 98.661 66.5757 98.4853 66.739 98.332C66.739 98.332 68.3195 99.9167 69.2328 100.422C70.1461 100.928 71.7065 102.673 72.7324 103.254C73.7583 103.835 75.0513 104.25 75.0513 104.25L75.491 104.262C75.4452 104.434 75.4367 104.566 75.2665 104.653Z" fill="#455A64"/>
<path d="M73.433 101.289C73.4157 101.277 73.311 101.437 73.1153 101.551C72.9216 101.67 72.7316 101.686 72.7334 101.707C72.7303 101.725 72.9389 101.739 73.1508 101.611C73.3639 101.485 73.45 101.294 73.433 101.289Z" fill="white"/>
<path d="M73.1458 100.426C73.1296 100.413 72.9907 100.596 72.7441 100.713C72.4995 100.834 72.2702 100.83 72.2706 100.851C72.2653 100.868 72.5105 100.905 72.7743 100.775C73.0394 100.648 73.1623 100.433 73.1458 100.426Z" fill="white"/>
<path d="M73.0149 99.6868C73.0043 99.6695 72.841 99.7564 72.6254 99.8221C72.4103 99.8894 72.2265 99.9098 72.2275 99.93C72.2272 99.9479 72.4206 99.9584 72.6458 99.8881C72.8714 99.8191 73.0253 99.7014 73.0149 99.6868Z" fill="white"/>
<path d="M68.6946 99.0017C68.689 99.0091 68.7698 99.0817 68.9085 99.189C69.0471 99.2964 69.2444 99.4373 69.4701 99.581C69.6961 99.7245 69.9073 99.8433 70.0634 99.9233C70.2194 100.003 70.3195 100.046 70.3238 100.037C70.3331 100.02 69.956 99.8087 69.5072 99.5226C69.0578 99.2377 68.7068 98.9858 68.6946 99.0017Z" fill="white"/>
<path d="M73.053 81.2097L73.1686 79.8213L78.9007 80.1076C78.9007 80.1076 78.1865 81.8238 77.9143 82.6109C77.6422 83.398 75.7098 87.7826 75.7098 87.7826L71.2871 85.3367L73.053 81.2097Z" fill="#263238"/>
<path d="M81.4473 33.3243C81.4473 33.3243 84.4859 31.619 87.4564 32.6037L94.3204 32.7052C94.3204 32.7052 100.932 31.5986 105.325 32.609L105.052 34.3874C105.052 34.3874 96.7101 35.4015 95.8058 35.6263C94.9016 35.8512 84.7363 37.5562 84.5025 38.0197C84.2688 38.4831 83.1858 40.7015 83.1858 40.7015L81.4473 33.3243Z" fill="#AE7461"/>
<path d="M86.8353 35.5139C86.8274 35.5008 86.6405 35.5923 86.3634 35.782C86.0865 35.971 85.7243 36.2656 85.3755 36.6426C85.0275 37.0204 84.7627 37.405 84.5963 37.6961C84.4294 37.9875 84.3531 38.181 84.3668 38.1879C84.402 38.208 84.7789 37.4683 85.4682 36.7281C86.1509 35.9822 86.8581 35.5474 86.8353 35.5139Z" fill="#6F4439"/>
<path d="M104.593 32.6416C104.548 32.6414 107.622 32.5007 107.886 32.5492C108.151 32.5978 109.434 33.0885 109.434 33.0885C109.434 33.0885 110.475 33.5722 110.404 34.1898C110.372 34.4706 110.288 34.979 110.288 34.979C110.288 34.979 110.585 35.3988 110.479 35.4888C110.373 35.5788 110.156 35.5617 110.038 35.5176C109.92 35.4735 107.932 34.7084 107.545 34.757C107.157 34.8057 107.367 35.1265 107.444 35.2428C107.522 35.3592 108.255 35.9432 108.45 36.2749C108.635 36.5895 108.456 36.763 108.311 36.7115C108.167 36.66 106.687 35.9732 106.359 35.7287C106.03 35.4842 106.002 35.0686 105.432 34.7938C104.863 34.519 104.384 34.4476 104.384 34.4476L104.593 32.6416Z" fill="#AE7461"/>
<path d="M108.67 33.9818C108.654 34.0231 109.092 34.1661 109.573 34.4263C110.055 34.6921 110.328 35.0616 110.357 35.0387C110.388 35.0261 110.146 34.5998 109.635 34.3166C109.385 34.1758 109.142 34.0926 108.965 34.0393C108.788 33.9871 108.676 33.9657 108.67 33.9818Z" fill="#6F4439"/>
<path d="M109.242 33.5406C109.23 33.5749 109.504 33.6953 109.822 33.8756C110.141 34.0539 110.383 34.2281 110.407 34.2005C110.429 34.1759 110.215 33.9512 109.883 33.7658C109.553 33.5788 109.251 33.5088 109.242 33.5406Z" fill="#6F4439"/>
<path d="M75.2137 56.417C74.9021 56.6896 72.4794 61.7122 74.2155 64.6587L72.7607 74.0537C72.7607 74.0537 81.0808 72.4898 82.75 71.0135L83.927 65.7736L75.2137 56.417Z" fill="#D93151"/>
<g opacity="0.3">
<path d="M74.8633 61.9336L78.933 72.6012C78.933 72.6012 82.0524 71.8466 82.7498 71.013L83.7382 66.6127L74.8633 61.9336Z" fill="black"/>
</g>
<path d="M75.4796 65.7844C75.5034 65.7589 75.2289 65.4645 74.8665 65.1268C74.5041 64.789 74.1912 64.5359 74.1674 64.5613C74.1437 64.5868 74.4182 64.8812 74.7806 65.219C75.1429 65.5567 75.4559 65.8099 75.4796 65.7844Z" fill="#263238"/>
<path d="M75.1168 66.4792C75.1409 66.4541 74.9105 66.194 74.6024 65.8983C74.2942 65.6025 74.0249 65.3831 74.0007 65.4082C73.9767 65.4333 74.2069 65.6934 74.5152 65.9892C74.8233 66.2849 75.0927 66.5043 75.1168 66.4792Z" fill="#263238"/>
<path d="M89.6871 58.0479C89.6871 58.0479 91.9776 58.2771 96.1437 58.9761C100.735 59.7465 101.921 59.9708 103.205 61.7808C104.488 63.5907 103.23 65.8598 102.067 67.2777C100.904 68.6955 93.2855 77.4832 92.2888 79.7708L89.3259 77.5191C89.3259 77.5191 91.6338 72.0213 93.0901 69.3519C94.5463 66.6825 95.2569 65.7562 95.4089 65.7243C95.5609 65.6925 88.0664 66.2864 88.0664 66.2864L89.6871 58.0479Z" fill="#AE7461"/>
<path d="M88.7627 77.5526L89.5589 76.9708L90.9953 73.6924L95.1491 75.8384L91.9107 80.2837L89.1653 79.8327L88.7627 77.5526Z" fill="#455A64"/>
<path d="M96.4349 84.8594C96.4349 84.8594 94.67 84.8367 93.312 84.2907C91.954 83.7446 90.0465 82.6222 89.3421 82.2182C88.6376 81.8142 86.3532 81.402 86.4347 80.5827C86.5163 79.7634 88.9329 77.3818 88.9329 77.3818C88.9329 77.3818 88.8955 78.3054 89.6712 78.511C90.4468 78.7166 92.0588 78.7744 92.0588 78.7744C92.0588 78.7744 93.0119 77.9705 93.4646 78.0669C93.9172 78.1633 93.3863 79.3687 93.3863 79.3687C93.3863 79.3687 93.9999 81.2017 94.6384 81.7532C95.2769 82.3046 95.2349 82.5393 96.0887 82.8259C96.9426 83.1124 97.2581 83.5547 97.2581 83.5547C97.2581 83.5547 97.4366 84.3804 97.1569 84.5718C96.8772 84.7632 96.4349 84.8594 96.4349 84.8594Z" fill="#263238"/>
<path d="M97.1721 84.5606C96.9056 84.7902 96.4339 84.872 96.4339 84.872C96.4339 84.872 94.6691 84.8493 93.311 84.3032C91.953 83.7572 90.0456 82.6347 89.3411 82.2307C88.6366 81.8268 86.3522 81.4145 86.4338 80.5952C86.4539 80.3704 86.5323 80.1578 86.6674 79.957C86.6674 79.957 88.7138 81.2454 89.7976 81.558C90.8814 81.8706 92.9454 83.3329 94.1659 83.6977C95.3865 84.0624 96.8482 84.1876 96.8482 84.1876L97.3144 84.0949C97.3076 84.2868 97.3305 84.4282 97.1721 84.5606Z" fill="#455A64"/>
<path d="M94.4312 81.4582C94.4102 81.4504 94.3384 81.6436 94.1598 81.8116C93.9842 81.9827 93.7882 82.0461 93.7951 82.0674C93.796 82.0867 94.0192 82.0516 94.2115 81.8655C94.4057 81.6815 94.4504 81.46 94.4312 81.4582Z" fill="white"/>
<path d="M93.9204 80.6195C93.9001 80.6093 93.7978 80.8351 93.5663 81.0177C93.3378 81.2042 93.0952 81.2549 93.1007 81.277C93.0992 81.2961 93.3664 81.276 93.613 81.0759C93.8617 80.8787 93.9394 80.6222 93.9204 80.6195Z" fill="white"/>
<path d="M93.6039 79.8714C93.5886 79.8557 93.4374 79.9866 93.2262 80.1077C93.0159 80.2304 92.8272 80.2962 92.8331 80.3172C92.8371 80.3362 93.0433 80.3006 93.2637 80.1723C93.4846 80.0454 93.6183 79.8843 93.6039 79.8714Z" fill="white"/>
<path d="M88.8888 80.1909C88.8847 80.2001 88.9873 80.2571 89.1592 80.3368C89.331 80.4164 89.5728 80.5173 89.8452 80.6143C90.1177 80.711 90.3689 80.7853 90.5525 80.8319C90.7362 80.8786 90.8518 80.8991 90.8543 80.8894C90.8598 80.8684 90.4118 80.7371 89.8702 80.5439C89.3283 80.3521 88.8978 80.1712 88.8888 80.1909Z" fill="white"/>
<path d="M75.9622 54.0349C75.6211 54.3506 73.2274 60.6493 75.6985 63.5842C78.1696 66.519 87.606 67.0455 87.606 67.0455L91.8108 57.1936C91.8108 57.1936 87.2713 56.7147 87.1951 56.5841C87.1189 56.4535 85.9577 51.6382 85.9577 51.6382C85.994 51.5004 75.9031 52.7917 75.972 52.8098L75.9622 54.0349Z" fill="#D93151"/>
<path d="M80.4697 55.8602C80.4697 55.8689 80.5651 55.8783 80.7377 55.8879C80.9376 55.8978 81.1814 55.9099 81.4683 55.9241C82.0849 55.9543 82.936 56.0036 83.8719 56.1005C84.8079 56.1984 85.6498 56.3306 86.256 56.4439C86.5379 56.4982 86.7774 56.5444 86.9736 56.5822C87.1431 56.6155 87.238 56.63 87.2402 56.6215C87.2423 56.6131 87.1515 56.5825 86.9851 56.5345C86.819 56.4855 86.5759 56.4243 86.2738 56.3566C85.6697 56.2204 84.8252 56.0734 83.8849 55.9752C82.9449 55.8778 82.0897 55.8424 81.4711 55.835C81.1618 55.8312 80.9114 55.833 80.7384 55.8388C80.5654 55.8443 80.4698 55.8515 80.4697 55.8602Z" fill="#263238"/>
<path d="M76.5897 53.6867C76.5897 53.6867 74.2285 58.4429 76.8868 60.884C79.5451 63.3251 88.5976 64.7223 88.5976 64.7223L90.625 59.9719C90.625 59.9719 79.3728 57.7084 78.9437 56.973C78.5146 56.2376 79.84 52.6537 79.7313 52.6849C79.7313 52.6849 77.4251 52.5617 76.6582 52.7564C76.4728 52.8035 76.5897 53.6867 76.5897 53.6867Z" fill="#E0E0E0"/>
<path d="M84.6029 61.7814C84.6082 61.7882 84.6845 61.7384 84.818 61.6423C84.9522 61.5471 85.1399 61.4006 85.3658 61.2122C85.818 60.8361 86.4136 60.2784 87.0033 59.5998C87.5922 58.9199 88.0602 58.2516 88.3687 57.7507C88.5233 57.5005 88.6419 57.294 88.7172 57.1477C88.7935 57.002 88.832 56.9196 88.8244 56.9153C88.807 56.9053 88.6204 57.2167 88.2939 57.7024C87.9679 58.1882 87.4924 58.8427 86.9081 59.5172C86.323 60.1905 85.7423 60.7536 85.3073 61.145C84.8726 61.5368 84.5907 61.7655 84.6029 61.7814Z" fill="#263238"/>
<path d="M85.8282 61.8823C85.83 61.8908 85.9076 61.8786 86.0474 61.849C86.1885 61.8248 86.3859 61.7611 86.6248 61.6683C87.0993 61.4766 87.7067 61.068 88.1999 60.4575C88.6946 59.8501 89.0294 59.2276 89.2749 58.7852C89.5172 58.3397 89.6643 58.0632 89.6492 58.0539C89.6346 58.045 89.4598 58.3065 89.1978 58.7407C88.9327 59.1718 88.587 59.7829 88.1027 60.3772C87.6198 60.9741 87.0437 61.3779 86.5887 61.5868C86.1321 61.7945 85.8216 61.8564 85.8282 61.8823Z" fill="#263238"/>
<path d="M75.9621 54.0348C75.9636 54.0355 75.9653 54.0103 75.9671 53.9595C75.9687 53.9039 75.9708 53.8285 75.9736 53.7299C75.9774 53.5197 75.983 53.2136 75.9904 52.8099L75.9771 52.792C76.0062 52.8157 75.9646 52.8372 75.9796 52.826H75.9799L75.9806 52.8259L75.985 52.825L75.9945 52.8233L76.0141 52.8201L76.0545 52.8141C76.0817 52.8103 76.1094 52.8065 76.1375 52.8026C76.1939 52.795 76.2521 52.7873 76.312 52.7793C76.4321 52.7638 76.5593 52.7474 76.6933 52.7302C76.9621 52.6964 77.2583 52.6591 77.5807 52.6185C78.2273 52.5388 78.9788 52.4463 79.8247 52.3421C81.5063 52.144 83.5627 51.9018 85.9083 51.6255L85.9081 51.6501C86.2407 53.0299 86.598 54.5278 87.0025 56.1136L87.0821 56.4119C87.0979 56.4641 87.106 56.507 87.1285 56.5675L87.144 56.61C87.1535 56.6294 87.1993 56.6567 87.205 56.6548C87.2344 56.6659 87.2611 56.6729 87.2869 56.6789C87.4949 56.7267 87.7005 56.7559 87.9093 56.7877C88.3261 56.8485 88.7487 56.9024 89.1767 56.955C90.0327 57.0597 90.9095 57.1585 91.8043 57.2545L91.7543 57.1694C90.9849 58.9707 90.1737 60.87 89.3402 62.8215C88.7265 64.2601 88.125 65.6702 87.5488 67.021L87.6094 66.9834C86.0096 66.8766 84.4609 66.6836 82.9879 66.4286C81.516 66.169 80.1145 65.8426 78.8347 65.3882C78.1961 65.1597 77.5878 64.898 77.0344 64.5803C76.4812 64.265 75.9833 63.8829 75.6259 63.4093C75.2625 62.9397 75.0286 62.4053 74.8841 61.8751C74.7373 61.3442 74.6703 60.8169 74.6454 60.314C74.6003 59.3063 74.7069 58.3961 74.8469 57.6129C74.9871 56.8284 75.1636 56.166 75.3269 55.6331C75.4895 55.0995 75.6448 54.6964 75.7586 54.4279C75.8708 54.1582 75.9621 54.0348 75.9621 54.0348C75.9621 54.0348 75.9302 54.0585 75.8922 54.1237C75.8509 54.1867 75.8003 54.2862 75.7377 54.4186C75.6167 54.6851 75.4542 55.0869 75.2847 55.6198C75.1143 56.1521 74.9309 56.8147 74.7839 57.6014C74.6372 58.3868 74.5238 59.3008 74.5638 60.3178C74.5862 60.8254 74.6511 61.3591 74.7978 61.899C74.942 62.438 75.178 62.9849 75.5488 63.4681C75.9149 63.9569 76.4235 64.3488 76.9825 64.6699C77.5424 64.9937 78.1553 65.2593 78.7978 65.4911C80.0852 65.9521 81.4913 66.2824 82.9674 66.5454C84.4452 66.8036 85.9949 66.9988 87.6025 67.1074L87.6458 67.1103L87.6631 67.0697C88.2398 65.7192 88.8419 64.3093 89.4561 62.871C90.2886 60.9191 91.0988 59.0193 91.8672 57.2176L91.8998 57.1412L91.8172 57.1324C90.9231 57.0375 90.0463 56.9398 89.1911 56.8367C88.7636 56.7847 88.3413 56.7317 87.9262 56.6718C87.7196 56.6409 87.5112 56.6112 87.3149 56.5665C87.2902 56.5608 87.2669 56.5545 87.2478 56.5473C87.2424 56.5459 87.2353 56.5427 87.2417 56.5455C87.2408 56.5486 87.2496 56.5438 87.2396 56.5548C87.2321 56.562 87.2237 56.5682 87.2146 56.5734C87.223 56.5685 87.1764 56.5953 87.2293 56.5636C87.2603 56.5448 87.2376 56.5572 87.2443 56.5525L87.2346 56.5218C87.2208 56.4853 87.2069 56.4272 87.1931 56.3808L87.1133 56.0847C86.7061 54.5021 86.3445 53.0043 86.0073 51.6262L86.0071 51.6508C86.0145 51.6344 85.9986 51.6001 85.9905 51.5971C85.9859 51.5933 85.9806 51.5899 85.9751 51.5873C85.9628 51.5818 85.9641 51.5836 85.9578 51.5817C85.9483 51.5795 85.9445 51.5797 85.9376 51.5787L85.9061 51.5771L85.8479 51.5776L85.7353 51.5831L85.5139 51.5996C85.3676 51.6133 85.2225 51.6269 85.0786 51.6404C84.7915 51.6711 84.5091 51.7014 84.2316 51.7311C83.6776 51.7958 83.1432 51.8583 82.6297 51.9184C81.6044 52.0462 80.6628 52.1636 79.8156 52.2692C78.9704 52.38 78.2195 52.4783 77.5735 52.563C77.2515 52.607 76.9556 52.6473 76.6871 52.684C76.5533 52.703 76.4263 52.7209 76.3063 52.738C76.2464 52.7468 76.1883 52.7554 76.1319 52.7637L76.0487 52.7765L76.0081 52.7832L75.9879 52.7868L75.9776 52.7888L75.9722 52.79L75.9681 52.7911L75.966 52.7918C75.98 52.7806 75.9379 52.8028 75.9669 52.8274L75.9536 52.8096C75.9545 53.2109 75.9552 53.5152 75.9556 53.7241C75.9568 53.8236 75.9577 53.8998 75.9584 53.9558C75.9594 54.0077 75.9607 54.0342 75.9621 54.0348Z" fill="#263238"/>
<path d="M100.25 63.9375C100.25 63.9288 100.172 63.9276 100.033 63.9328C99.8935 63.9367 99.6924 63.9548 99.4451 63.9881C98.9508 64.0537 98.2723 64.2016 97.5578 64.4704C96.8436 64.7411 96.2368 65.0785 95.8224 65.356C95.6148 65.4945 95.452 65.6139 95.3447 65.7031C95.2367 65.7913 95.1797 65.8432 95.1849 65.8501C95.1973 65.8666 95.4466 65.6868 95.87 65.4314C96.2928 65.1756 96.8976 64.8554 97.6023 64.5883C98.3075 64.3231 98.9729 64.1636 99.4592 64.0761C99.9457 63.9879 100.252 63.958 100.25 63.9375Z" fill="#6F4439"/>
<path d="M79.7523 56.7229C79.748 56.7084 79.4882 56.7651 79.0827 56.9064C78.6774 57.0471 78.1293 57.2814 77.5609 57.6094C76.993 57.9386 76.5166 58.2969 76.1925 58.5781C75.8679 58.8592 75.6892 59.056 75.6997 59.067C75.713 59.0813 75.9128 58.9081 76.2489 58.6471C76.5847 58.3859 77.063 58.0437 77.624 57.7185C78.1855 57.3945 78.7205 57.1505 79.1144 56.9897C79.5082 56.8284 79.758 56.7417 79.7523 56.7229Z" fill="#263238"/>
<path d="M79.9227 56.6255C79.9218 56.6095 79.7368 56.6029 79.4393 56.6283C79.1421 56.6534 78.7327 56.7161 78.2919 56.8336C77.851 56.9519 77.465 57.1019 77.1948 57.2285C76.9244 57.3549 76.7675 57.4529 76.7746 57.4673C76.7913 57.5022 77.4541 57.1853 78.3244 56.9554C79.193 56.7203 79.9257 56.6641 79.9227 56.6255Z" fill="#263238"/>
<path d="M68.0466 24.0036C68.0226 23.808 68.0205 23.6069 67.9556 23.4208C67.8906 23.2347 67.7441 23.0602 67.5488 23.0335C67.3535 23.0067 67.1392 23.1936 67.1932 23.3831C66.7276 22.8838 66.8554 22.0315 66.4069 21.5167C66.1186 21.1859 65.6401 21.0697 65.2049 21.1258C64.5066 21.2159 63.8802 21.7294 63.655 22.3965C63.4591 22.9767 63.5756 23.6481 63.9387 24.1389C63.6347 23.8288 63.2178 23.6185 62.8022 23.71C62.2194 23.8383 61.8947 24.5279 61.9944 25.1163C62.0941 25.7047 62.5091 26.1905 62.9624 26.5786C64.2831 27.7093 66.0818 28.2622 67.8096 28.0685L69.0281 25.73C68.4908 25.314 68.1293 24.6781 68.0466 24.0036Z" fill="#263238"/>
<path d="M67.7551 26.2671C68.2956 24.4439 69.4591 23.0363 71.2011 22.2705C72.1839 21.8385 72.6798 21.8719 73.4733 21.7647C74.2667 21.6574 75.0704 21.7693 75.749 22.1936C76.5551 22.6976 77.3164 23.3213 77.7781 24.152C78.2521 25.0053 78.6052 25.9047 78.8551 26.8482C79.1592 27.9959 79.1216 29.0715 78.899 30.022L77.1433 31.0289C75.8994 31.602 75.1438 33.3327 73.7934 33.5615C72.4429 33.7903 70.764 33.1906 69.653 32.3907C68.1093 31.2793 67.2145 28.0904 67.7551 26.2671Z" fill="#263238"/>
<path d="M77.633 24.8195C77.0121 23.3754 74.9474 21.9211 73.154 22.6669L72.3194 22.9088L69.7815 25.3982C69.3509 25.6053 69.1503 26.1072 69.3198 26.5536L73.7467 35.5603L78.82 37.2566L78.1766 34.2656L77.8783 33.3609C77.8783 33.3609 79.833 32.3061 79.3447 29.7039C79.1017 28.4099 78.3229 26.4239 77.633 24.8195Z" fill="#AE7461"/>
<path d="M75.5282 30.6496C75.4919 30.5168 75.5151 30.3762 75.5722 30.2624C75.6864 30.0347 75.941 29.9103 76.1874 29.9617C76.4337 30.0132 76.6567 30.2373 76.7262 30.5034C76.6809 30.6956 76.5587 30.864 76.3837 30.9559C76.3565 30.9702 76.3286 30.9831 76.2999 30.9944C76.1607 31.0486 76.0011 31.061 75.8533 31.0037C75.7056 30.9465 75.573 30.8133 75.5282 30.6496Z" fill="#6F4439"/>
<path d="M77.8466 27.1515C77.9121 27.3163 77.8265 27.5075 77.6556 27.579C77.4851 27.6504 77.2936 27.5753 77.228 27.4106C77.1626 27.246 77.2482 27.0545 77.4186 26.9831C77.5895 26.9115 77.7811 26.9869 77.8466 27.1515Z" fill="#263238"/>
<path d="M77.4263 25.8531C77.4019 25.9083 77.0992 25.8168 76.7593 25.939C76.4181 26.0564 76.2309 26.3204 76.1791 26.2918C76.1544 26.2799 76.1679 26.1914 76.2482 26.0735C76.3271 25.9566 76.4823 25.8149 76.6945 25.7401C76.9068 25.6656 77.1129 25.68 77.2438 25.7231C77.377 25.766 77.4391 25.8278 77.4263 25.8531Z" fill="#263238"/>
<path d="M76.3844 29.3559C76.3759 29.3371 76.5743 29.2252 76.9013 29.059C76.9849 29.0191 77.061 28.9725 77.0545 28.9081C77.0525 28.838 76.9828 28.7575 76.9046 28.6716C76.7479 28.4907 76.5838 28.3011 76.4117 28.1024C75.719 27.289 75.1842 26.6075 75.2173 26.58C75.2504 26.5523 75.8388 27.1893 76.5316 28.0028C76.7003 28.2042 76.8614 28.3959 77.0151 28.5796C77.0832 28.6665 77.1797 28.7582 77.1818 28.9042C77.1816 28.9775 77.1346 29.0472 77.0843 29.0821C77.0347 29.119 76.9862 29.1373 76.9442 29.1552C76.606 29.2968 76.3926 29.3747 76.3844 29.3559Z" fill="#263238"/>
<path d="M77.8817 33.3564C77.8817 33.3564 76.2618 34.0552 74.2666 33.655C74.2666 33.655 75.725 35.171 78.1095 34.06L77.8817 33.3564Z" fill="#6F4439"/>
<path d="M75.4673 29.9483C75.5215 29.9254 75.6539 30.294 76.0636 30.443C76.4728 30.5931 76.8515 30.4112 76.8729 30.4617C76.8863 30.483 76.8108 30.5646 76.6464 30.6284C76.4854 30.6922 76.2287 30.7248 75.9782 30.6337C75.728 30.542 75.5686 30.3573 75.5019 30.2105C75.4328 30.0613 75.4413 29.9552 75.4673 29.9483Z" fill="#263238"/>
<path d="M76.8238 24.738C76.7963 24.8414 76.5159 24.8789 76.2207 25.0129C75.9211 25.1372 75.7019 25.3168 75.6083 25.2659C75.5654 25.2401 75.5698 25.1474 75.6455 25.0262C75.7197 24.906 75.8719 24.7649 76.0763 24.676C76.2808 24.5874 76.4871 24.5726 76.6249 24.6009C76.7644 24.6285 76.8343 24.689 76.8238 24.738Z" fill="#263238"/>
<path d="M74.1822 28.5023C74.2422 28.6691 74.4329 28.7558 74.6084 28.6962C74.7835 28.637 74.8773 28.454 74.8174 28.2872C74.7574 28.1204 74.5665 28.0336 74.3914 28.0929C74.2159 28.1522 74.1222 28.3355 74.1822 28.5023Z" fill="#263238"/>
<path d="M72.8729 27.6146C72.9277 27.6398 73.094 27.3709 73.4298 27.2376C73.7632 27.0998 74.0783 27.1738 74.0983 27.1182C74.1089 27.0929 74.0401 27.0354 73.9018 27.0002C73.7653 26.9648 73.5551 26.9612 73.3466 27.0455C73.1381 27.1303 72.9931 27.2774 72.9236 27.3963C72.8521 27.5166 72.8465 27.6039 72.8729 27.6146Z" fill="#263238"/>
<path d="M72.6245 26.4667C72.7209 26.5164 72.9481 26.334 73.2577 26.2059C73.5633 26.0682 73.8527 26.0274 73.8815 25.9235C73.8927 25.8742 73.8207 25.8146 73.6767 25.7886C73.5346 25.7622 73.3214 25.7793 73.1099 25.8706C72.8986 25.9621 72.7409 26.105 72.6639 26.2263C72.5852 26.3484 72.5805 26.4412 72.6245 26.4667Z" fill="#263238"/>
<path d="M71.4348 30.4249C71.3689 30.2417 71.0023 29.8851 70.8109 29.9215C70.3 30.019 69.4413 30.3692 69.8719 31.6004C70.4607 33.2832 72.0305 32.345 72.0165 32.2957C72.0057 32.2571 71.6626 31.0576 71.4348 30.4249Z" fill="#AE7461"/>
<path d="M71.3365 31.8427C71.3273 31.8399 71.3143 31.8735 71.2728 31.9135C71.232 31.9525 71.1542 31.9969 71.0549 31.9948C70.8541 31.9917 70.6056 31.7618 70.4914 31.4613C70.4334 31.3096 70.4145 31.1526 70.4265 31.0128C70.4349 30.8717 70.4845 30.7578 70.5686 30.7106C70.6505 30.6589 70.7327 30.6904 70.7698 30.7304C70.8089 30.7696 70.8099 30.807 70.8199 30.8067C70.8261 30.8093 70.8462 30.7659 70.8083 30.7012C70.7896 30.6701 70.756 30.6373 70.7051 30.6188C70.6532 30.6001 70.588 30.6042 70.5278 30.6327C70.4011 30.6872 70.326 30.8474 70.3126 31.0008C70.2924 31.1573 70.31 31.3351 70.375 31.5055C70.5044 31.8408 70.7891 32.0974 71.0573 32.0826C71.1865 32.072 71.273 32.0018 71.31 31.9442C71.3478 31.8845 71.3434 31.8437 71.3365 31.8427Z" fill="#6F4439"/>
<path d="M70.7461 29.9535L71.3451 30.2106C72.4223 27.731 74.1295 21.9384 74.0411 22.278C74.0411 22.278 72.5937 22.2892 71.35 23.0799C70.1062 23.8706 67.847 25.6077 68.5496 27.1699C69.2522 28.732 70.7461 29.9535 70.7461 29.9535Z" fill="#263238"/>
<path d="M69.7893 23.1578C69.7839 23.1509 69.7057 23.2073 69.5679 23.3157C69.498 23.3688 69.415 23.4368 69.3273 23.5255C69.2386 23.6128 69.1311 23.7067 69.0315 23.8283C68.8184 24.0593 68.5962 24.3626 68.3827 24.7196C68.1771 25.081 67.9851 25.4986 67.8421 25.9577C67.7051 26.4187 67.6319 26.8726 67.6013 27.2873C67.5797 27.7027 67.5953 28.0785 67.6437 28.389C67.6586 28.5455 67.6956 28.6833 67.7206 28.8053C67.744 28.9277 67.775 29.0304 67.8036 29.1135C67.8575 29.2802 67.8912 29.3706 67.8994 29.3679C67.9247 29.3607 67.7992 28.9932 67.7321 28.3782C67.6957 28.0713 67.6898 27.7023 67.7172 27.2955C67.7535 26.8894 67.8286 26.4459 67.9626 25.9943C68.1028 25.5448 68.2875 25.1348 68.4835 24.7773C68.6873 24.4243 68.8978 24.1212 69.099 23.8866C69.4973 23.4132 69.8063 23.1778 69.7893 23.1578Z" fill="#455A64"/>
<path d="M86.7494 47.2767C86.7494 47.2767 86.3875 42.2932 85.8195 39.9199C85.2517 37.5465 81.4465 33.3252 81.4465 33.3252L78.4737 34.2076L78.8204 37.2571L73.8694 35.6948L71.1816 37.0079L72.2994 45.686L74.0352 49.1767C73.7644 51.6396 73.008 53.4807 74.6466 54.3934C74.5977 53.4951 74.852 52.918 75.7474 52.8306C80.6082 52.356 84.1622 53.3167 86.7 54.2524C87.7354 54.6341 86.9061 50.6081 86.9061 50.6081C86.9061 50.6081 87.2494 50.1606 87.6552 49.6505C88.0398 49.1671 86.7559 47.3021 86.7494 47.2767Z" fill="#D93151"/>
<g opacity="0.3">
<path d="M86.8648 50.573C83.9706 50.2839 80.9608 50.0081 78.2275 51.0026C80.802 51.1883 83.3948 51.1181 85.9554 50.7932" fill="black"/>
</g>
<path d="M73.9343 48.9734C73.9343 48.9734 74.7476 49.0091 75.0606 46.8892C75.3735 44.7693 71.6944 36.757 71.6688 36.7695C71.6431 36.7821 71.1816 37.0075 71.1816 37.0075L72.2466 45.5797L73.9343 48.9734Z" fill="#E0E0E0"/>
<path d="M85.8272 50.8127C85.8266 50.8086 85.7731 50.8109 85.6714 50.8192C85.5574 50.8296 85.41 50.8431 85.2269 50.8598C84.8406 50.896 84.2805 50.9448 83.5849 50.9875C82.1944 51.075 80.2574 51.116 78.1039 50.9594L78.1208 51.0812C78.2675 51.0324 78.4247 50.98 78.583 50.9273C79.1239 50.7634 79.6637 50.6435 80.1903 50.5583C80.7182 50.4808 81.2309 50.4284 81.7214 50.4045C82.7022 50.3544 83.5887 50.3893 84.3314 50.4289C85.0743 50.4713 85.675 50.5218 86.0903 50.5537C86.2879 50.5681 86.4467 50.5797 86.5689 50.5887C86.6784 50.5954 86.7362 50.5968 86.7366 50.5925C86.737 50.5881 86.6801 50.5782 86.5714 50.5634C86.4498 50.5485 86.2917 50.529 86.095 50.5049C85.6809 50.4579 85.081 50.3938 84.337 50.3399C83.5932 50.2889 82.7037 50.2444 81.7158 50.2885C81.2219 50.3094 80.7045 50.3597 80.1714 50.4363C79.6393 50.5206 79.0933 50.641 78.5457 50.8069C78.3855 50.8603 78.2263 50.9134 78.0778 50.963L77.7803 51.0622L78.0948 51.0848C80.2556 51.24 82.199 51.1841 83.5908 51.0739C84.2872 51.0198 84.847 50.9577 85.2321 50.9069C85.4248 50.8829 85.5736 50.859 85.6744 50.8435C85.7752 50.8273 85.8277 50.8169 85.8272 50.8127Z" fill="#263238"/>
<path d="M73.5029 35.8741L79.4043 38.1964L78.6512 34.1406L78.1774 34.2662L78.8208 37.2572L73.7692 35.5177L73.5029 35.8741Z" fill="#E0E0E0"/>
<path d="M80.7979 33.5174L85.0956 38.2316C84.5058 36.9908 83.154 35.1506 81.6731 33.209L80.7979 33.5174Z" fill="#E0E0E0"/>
<path d="M86.6999 54.2519C86.7028 54.2437 86.5603 54.1842 86.2999 54.0835C86.0391 53.9838 85.6597 53.8448 85.1854 53.6879C84.2382 53.3743 82.9031 52.9959 81.3897 52.7839C79.8758 52.5737 78.4859 52.5713 77.4897 52.6466C76.9914 52.6877 76.5891 52.7274 76.3132 52.7727C76.0367 52.8124 75.8846 52.8384 75.8857 52.8471C75.8869 52.8557 76.0412 52.8461 76.3188 52.8215C76.5959 52.7912 76.9981 52.7651 77.495 52.7356C78.4884 52.6834 79.8681 52.7 81.3722 52.9088C82.8758 53.1194 84.2068 53.4817 85.1585 53.7728C85.6348 53.9184 86.0181 54.0444 86.2836 54.1297C86.5488 54.2161 86.6969 54.26 86.6999 54.2519Z" fill="#263238"/>
<path d="M83.0141 41.6162L83.2218 42.3537L82.5732 47.0468L81.3371 47.3951L81.976 42.9092L80.3467 43.3684L80.5722 44.1689L79.561 44.454L79.0742 42.7263L83.0141 41.6162Z" fill="#E0E0E0"/>
<path d="M84.6733 44.284C84.6668 44.2498 83.4177 44.4573 81.8837 44.7475C80.3491 45.0377 79.1107 45.3006 79.1172 45.3348C79.1237 45.369 80.3725 45.1615 81.9071 44.8713C83.4411 44.5811 84.6797 44.3182 84.6733 44.284Z" fill="#263238"/>
<path d="M61.2059 21.3731C64.2896 20.515 66.0938 17.3195 65.2356 14.2357C64.3775 11.152 61.182 9.34781 58.0982 10.206C55.0145 11.0641 53.2103 14.2596 54.0685 17.3434C54.9266 20.4271 58.1221 22.2313 61.2059 21.3731Z" fill="#D93151"/>
<path d="M55.7235 14.1198C55.53 14.0825 55.334 14.0805 55.1492 14.1113C55.1377 14.1132 55.1261 14.1145 55.1146 14.1169L55.0806 14.1249C55.0579 14.1303 55.0354 14.1356 55.013 14.1409C54.9688 14.1538 54.9253 14.1685 54.8827 14.1834C54.7982 14.2158 54.7192 14.2563 54.6452 14.3005C54.5716 14.3455 54.5043 14.3961 54.4414 14.4484C54.38 14.5023 54.3223 14.5573 54.2708 14.6152C54.0773 14.8309 53.9516 15.0634 53.8653 15.2746C53.8521 15.4259 53.8449 15.5788 53.8438 15.7331C53.8825 15.6237 53.9287 15.5042 53.9871 15.3779C54.0355 15.2745 54.0914 15.1667 54.1611 15.0599C54.2311 14.9534 54.3126 14.8458 54.4106 14.7463C54.4592 14.6961 54.5127 14.6491 54.5688 14.6035C54.6261 14.5595 54.6865 14.5174 54.7514 14.4807C54.8166 14.4449 54.8851 14.4126 54.9574 14.3874C54.994 14.3761 55.0308 14.3648 55.0684 14.3549L55.1259 14.3432L55.1548 14.3371C55.1645 14.3353 55.1745 14.3347 55.1843 14.3333C55.3415 14.3118 55.5089 14.3172 55.6768 14.3536C55.6963 14.3579 55.7158 14.3626 55.7353 14.3675C55.7623 14.2921 55.7902 14.2166 55.8195 14.1413C55.7875 14.1335 55.7555 14.1261 55.7235 14.1198Z" fill="#263238"/>
<path d="M56.173 14.5406C56.4956 14.7144 56.7744 14.9976 57.0125 15.3308C57.2513 15.6648 57.4514 16.0508 57.6588 16.4483C57.8653 16.8454 58.0622 17.2376 58.2618 17.6131C58.3617 17.8009 58.4613 17.9848 58.5633 18.163C58.6134 18.2524 58.6658 18.3397 58.7164 18.4264C58.7689 18.5123 58.8194 18.5979 58.8725 18.6806C59.2881 19.3483 59.7486 19.9012 60.1923 20.3019C60.635 20.7058 61.0577 20.9546 61.36 21.0934C61.4348 21.1301 61.5044 21.1561 61.5641 21.1794C61.5941 21.1908 61.6214 21.2019 61.6471 21.2105C61.6521 21.212 61.6776 21.2182 61.6825 21.2197C61.7097 21.2096 61.7359 21.1999 61.7629 21.1894C61.7614 21.1886 61.7398 21.1822 61.7383 21.1814L61.6739 21.1483C61.6504 21.1359 61.6252 21.1211 61.5976 21.1061C61.5426 21.0756 61.4781 21.0428 61.4088 20.9999C61.1283 20.8358 60.7361 20.5712 60.3239 20.1626C59.9103 19.7561 59.4808 19.2106 59.0851 18.5494C59.0345 18.4676 58.9863 18.3826 58.936 18.2976C58.8876 18.2115 58.8373 18.1252 58.7891 18.0363C58.6909 17.8595 58.5943 17.6766 58.4969 17.4896C58.3038 17.1129 58.104 16.7228 57.8993 16.3233C57.6912 15.925 57.4854 15.5297 57.228 15.1756C57.1632 15.0876 57.097 15.0014 57.0255 14.9201C56.9909 14.8787 56.9531 14.84 56.9169 14.8004C56.8787 14.7625 56.8421 14.7236 56.8023 14.6879C56.7251 14.6144 56.6424 14.5476 56.557 14.4849C56.5136 14.4549 56.471 14.4242 56.4259 14.3978C56.4036 14.3844 56.382 14.3699 56.3591 14.3576L56.291 14.3205C56.2205 14.283 56.1484 14.2502 56.0753 14.2217C56.0453 14.2983 56.0169 14.375 55.9893 14.4518C56.0514 14.4776 56.1128 14.5071 56.173 14.5406Z" fill="#263238"/>
<path d="M64.8688 18.2351C64.8513 18.2105 64.8325 18.184 64.8124 18.1557C64.7919 18.1277 64.7692 18.0986 64.7454 18.0675C64.6972 18.0057 64.6437 17.937 64.5851 17.8618C64.5253 17.7876 64.4582 17.7088 64.3867 17.6235C64.3159 17.5374 64.2352 17.45 64.1512 17.3556C64.0679 17.2606 63.975 17.1648 63.8785 17.063C63.783 16.9602 63.6767 16.8587 63.5686 16.7502C63.5148 16.6956 63.457 16.6431 63.3993 16.5883C63.3411 16.5338 63.2825 16.4777 63.2216 16.4221C63.1601 16.3672 63.0974 16.3113 63.0338 16.2545C63.0018 16.2263 62.97 16.1973 62.9372 16.169C62.9041 16.1411 62.8708 16.1129 62.8372 16.0845C62.7699 16.0279 62.7023 15.9697 62.6323 15.9123C62.5617 15.8557 62.4902 15.7984 62.4177 15.7403C62.3459 15.6815 62.2701 15.6258 62.1946 15.568C62.1187 15.5108 62.0429 15.4515 61.9634 15.3955C61.8845 15.3387 61.8047 15.2814 61.7241 15.2235C61.6422 15.1676 61.5594 15.1112 61.4759 15.0542C61.1399 14.8295 60.7836 14.6092 60.4098 14.3991C60.0348 14.1908 59.6604 14.0027 59.2928 13.8342C59.2005 13.7929 59.1091 13.752 59.0185 13.7115C58.9269 13.6733 58.8363 13.6354 58.7465 13.5979C58.6572 13.5595 58.5669 13.526 58.4784 13.4913C58.3896 13.4573 58.3024 13.422 58.2146 13.3916C58.1272 13.3603 58.0409 13.3294 57.9557 13.299C57.8702 13.2695 57.7851 13.2424 57.7016 13.2147C57.6599 13.2009 57.6184 13.1874 57.5772 13.1738C57.536 13.1607 57.4946 13.1488 57.4538 13.1364L57.2126 13.0642C57.1333 13.0415 57.0548 13.021 56.978 13C56.901 12.9796 56.826 12.9579 56.7513 12.9407C56.736 12.937 56.721 12.9334 56.7058 12.9297L56.7019 12.9361C56.6867 12.963 56.6715 12.9899 56.6563 13.0168L56.6016 13.1137C56.6332 13.1226 56.6651 13.1316 56.6974 13.1405C56.7704 13.1601 56.8437 13.1841 56.9189 13.2067C56.9939 13.2298 57.0707 13.2524 57.1482 13.2771C57.2255 13.3026 57.304 13.3285 57.3839 13.3549C57.4238 13.3682 57.4642 13.3809 57.5045 13.3949C57.5447 13.4092 57.5853 13.4236 57.6261 13.4381C57.7077 13.4673 57.7908 13.4959 57.8744 13.5267C57.9577 13.5583 58.0421 13.5904 58.1276 13.6229C58.2134 13.6544 58.2986 13.6907 58.3855 13.7256C58.4721 13.7611 58.5604 13.7953 58.6478 13.8343C58.7356 13.8723 58.8244 13.9106 58.914 13.9494C59.0027 13.9901 59.0923 14.0313 59.1827 14.0728C59.5428 14.2418 59.9102 14.4284 60.2789 14.6333C60.6465 14.8399 60.9979 15.055 61.3304 15.273C61.4131 15.3282 61.4951 15.3829 61.5763 15.4371C61.6563 15.4931 61.7354 15.5486 61.8138 15.6035C61.8928 15.6575 61.9682 15.7147 62.0438 15.7699C62.119 15.8256 62.1946 15.8791 62.2664 15.9357C62.3388 15.9915 62.4104 16.0465 62.481 16.1009C62.551 16.1559 62.6189 16.2118 62.6865 16.2659C62.7203 16.2931 62.7538 16.32 62.787 16.3468C62.8201 16.3738 62.8521 16.4016 62.8843 16.4286C62.9486 16.4827 63.0119 16.5361 63.0741 16.5885C63.1357 16.6416 63.1951 16.6951 63.2542 16.7469C63.3129 16.7991 63.3717 16.8489 63.4266 16.9009C63.5371 17.004 63.646 17.1001 63.7446 17.1974C63.8442 17.2936 63.9405 17.3839 64.0277 17.4734C64.1155 17.5621 64.2004 17.644 64.2757 17.7244C64.3522 17.8039 64.4233 17.8778 64.4889 17.9459C64.5535 18.015 64.6125 18.078 64.6656 18.1348L64.7414 18.2147L64.8071 18.2857C64.8211 18.3007 64.8433 18.3304 64.856 18.3437C64.8679 18.3194 64.8828 18.2886 64.8944 18.2641C64.8899 18.2575 64.8735 18.2419 64.8688 18.2351Z" fill="#263238"/>
<path d="M56.438 12.8652C56.3993 12.8563 56.3609 12.8478 56.3229 12.8401C56.1868 12.8112 56.0575 12.7823 55.9339 12.7611C55.8106 12.7389 55.6948 12.7159 55.5853 12.7007C55.4761 12.6845 55.3746 12.6685 55.2809 12.6565C55.1869 12.6459 55.1011 12.6363 55.0239 12.6276C54.9853 12.6237 54.9489 12.6196 54.9145 12.6168L54.8182 12.6103L54.8013 12.6094C54.7864 12.6324 54.7715 12.6555 54.7568 12.6788C54.773 12.6822 54.7897 12.6857 54.8075 12.6894L54.9016 12.7081C54.9351 12.7152 54.9708 12.7228 55.0085 12.7309C55.0841 12.7464 55.168 12.7636 55.2599 12.7825C55.3515 12.8027 55.4509 12.8246 55.5578 12.8481C55.6649 12.8701 55.7782 12.8996 55.8988 12.9279C56.0196 12.9553 56.146 12.9901 56.2791 13.0245C56.2988 13.0294 56.3188 13.0349 56.3387 13.0401L56.4274 12.8839L56.438 12.8652Z" fill="#263238"/>
<path d="M57.4531 11.8456C57.4782 11.8529 57.5034 11.8601 57.5289 11.8669C57.5898 11.8833 57.652 11.8968 57.7154 11.9122C57.779 11.9263 57.844 11.939 57.9103 11.9521C58.1756 12.0006 58.462 12.033 58.7631 12.0498C59.0641 12.0659 59.3799 12.0678 59.7051 12.0606C60.0305 12.0541 60.3656 12.0388 60.707 12.0291C60.8777 12.024 61.0459 12.0203 61.2113 12.0198C61.3768 12.0188 61.5394 12.0208 61.6987 12.0271C62.0174 12.0381 62.3224 12.0678 62.6091 12.1151C62.8957 12.1644 63.162 12.2328 63.4041 12.3198C63.6458 12.4075 63.8625 12.5116 64.0507 12.6225C64.2389 12.7335 64.3992 12.8506 64.5309 12.9642C64.5639 12.9925 64.594 13.0217 64.6242 13.0487C64.6389 13.0626 64.6543 13.0753 64.6678 13.0893L64.7077 13.1302C64.7336 13.157 64.7596 13.1819 64.7826 13.2071L64.8469 13.2802C64.8807 13.3161 64.9075 13.3516 64.9327 13.3832C64.8594 13.2224 64.779 13.0657 64.6919 12.9134C64.6737 12.8934 64.6552 12.8732 64.6354 12.8531C64.5068 12.7225 64.3458 12.5876 64.1534 12.4595C63.9611 12.3315 63.7371 12.211 63.4852 12.109C63.2331 12.0076 62.9524 11.9265 62.6541 11.8682C62.3554 11.8117 62.0382 11.7756 61.7103 11.7606C61.5464 11.7522 61.3796 11.7488 61.2109 11.7489C61.0422 11.7484 60.8714 11.7518 60.6991 11.7568C60.3542 11.7667 60.0198 11.7839 59.6981 11.7938C59.3763 11.8046 59.0673 11.808 58.7741 11.7991C58.481 11.7896 58.2041 11.7665 57.9474 11.7294C57.8267 11.7109 57.7099 11.6907 57.5991 11.667L57.5692 11.7029C57.5303 11.7497 57.4916 11.7974 57.4531 11.8456Z" fill="#263238"/>
<path d="M57.2532 11.5717C57.1531 11.5354 57.062 11.4926 56.9828 11.4426C56.904 11.3927 56.834 11.3361 56.7814 11.2762C56.6736 11.1544 56.6183 11.0173 56.5965 10.9037C56.5931 10.8861 56.5909 10.8691 56.5892 10.8525C56.5563 10.8729 56.5237 10.8937 56.4912 10.9147L56.4912 10.9158C56.4992 11.0501 56.5462 11.2156 56.6633 11.3723C56.7812 11.5289 56.965 11.659 57.1823 11.7507C57.189 11.7536 57.196 11.7561 57.2028 11.7589C57.2464 11.7047 57.2902 11.6514 57.3343 11.599C57.3066 11.5903 57.2795 11.5812 57.2532 11.5717Z" fill="#263238"/>
<path d="M56.7017 12.9358L56.7056 12.9294L56.7499 12.8572C56.9694 12.4932 57.2069 12.1555 57.4537 11.8459C57.4921 11.7976 57.5307 11.75 57.5695 11.7032L57.5993 11.6673L57.677 11.5736C57.7136 11.5315 57.7497 11.4895 57.7865 11.4488C57.8595 11.3667 57.9334 11.2876 58.0078 11.2114C58.1563 11.0588 58.308 10.9189 58.4621 10.7937C58.6158 10.6677 58.7733 10.5586 58.9306 10.4641C58.9697 10.44 59.0098 10.4188 59.0487 10.3964C59.0881 10.3768 59.1263 10.3569 59.1655 10.3386C59.2057 10.3216 59.245 10.3041 59.2846 10.288C59.3249 10.2729 59.3647 10.258 59.4041 10.2433C59.5635 10.188 59.7197 10.1449 59.8687 10.1089C60.0182 10.0753 60.1604 10.0467 60.2946 10.0276L60.3132 10.025C60.0886 9.99898 59.8605 9.98577 59.6295 9.98635C59.5366 10.0083 59.4416 10.0333 59.3442 10.0633C59.302 10.0775 59.2593 10.0918 59.2161 10.1063C59.1731 10.1221 59.1299 10.1397 59.086 10.1567C59.0425 10.1753 58.9987 10.1963 58.9546 10.2167C58.9127 10.2392 58.8694 10.2605 58.8273 10.2847C58.6578 10.3799 58.4883 10.4911 58.3239 10.6193C58.159 10.747 57.9977 10.8898 57.8406 11.045C57.762 11.1225 57.6841 11.2029 57.6075 11.2862C57.5689 11.3276 57.5311 11.3701 57.4928 11.4127L57.3805 11.544C57.3651 11.562 57.3498 11.5806 57.3345 11.5988C57.2904 11.6513 57.2466 11.7046 57.2031 11.7588C56.9655 12.0543 56.7371 12.3753 56.5253 12.7208C56.5086 12.7476 56.4919 12.7745 56.4751 12.8014C56.4629 12.8227 56.4506 12.8441 56.4384 12.8655L56.4277 12.8842L56.3381 13.0404L56.3322 13.0507C56.2993 13.1059 56.2713 13.1641 56.2406 13.2212C56.2106 13.2786 56.1804 13.3362 56.1502 13.394C56.122 13.4529 56.0937 13.512 56.0654 13.5713L56.0229 13.6605C56.0085 13.6902 55.9946 13.7202 55.9819 13.7508C55.9558 13.8116 55.9295 13.8726 55.9032 13.9339C55.8901 13.9645 55.8769 13.9951 55.8638 14.0259C55.8518 14.0571 55.8398 14.0883 55.8277 14.1196C55.8249 14.1267 55.8224 14.1338 55.8197 14.1409C55.7904 14.2162 55.7624 14.2916 55.7354 14.3671C55.5857 14.7854 55.4704 15.2062 55.3906 15.6213C55.2941 16.1181 55.2515 16.6072 55.251 17.0722C55.2505 17.5373 55.2918 17.9785 55.3617 18.3856C55.4329 18.7926 55.5331 19.1648 55.645 19.497C55.7375 19.7795 55.8461 20.0302 55.9508 20.2523C56.0355 20.3222 56.122 20.39 56.2105 20.455C56.1882 20.4069 56.1656 20.3575 56.1427 20.3061C56.0369 20.0554 55.9206 19.7679 55.8256 19.4393C55.728 19.1118 55.6411 18.7471 55.5813 18.3503C55.5228 17.9533 55.491 17.5247 55.4981 17.0743C55.5053 16.6241 55.5516 16.152 55.6486 15.6715C55.7291 15.2682 55.8432 14.8591 55.9898 14.4517C56.0175 14.3749 56.0459 14.2982 56.0759 14.2216L56.0773 14.2178L56.1123 14.1268L56.1505 14.0375C56.1759 13.9781 56.2013 13.9189 56.2266 13.8598C56.2388 13.8301 56.2523 13.801 56.2662 13.7721C56.2799 13.7432 56.2936 13.7143 56.3073 13.6855C56.3346 13.6278 56.3618 13.5703 56.389 13.5131C56.4181 13.4568 56.4472 13.4008 56.4762 13.3449C56.5057 13.2894 56.5326 13.2327 56.5643 13.1789L56.6014 13.1134L56.6561 13.0165C56.6714 12.9896 56.6865 12.9627 56.7017 12.9358Z" fill="#263238"/>
<path d="M59.0654 21.4797L58.19 20.8815C58.19 20.8815 59.0855 19.9067 59.0664 19.5615C59.0455 19.1856 58.5378 19.259 58.3629 19.4803C58.2425 19.6326 57.4757 20.6551 57.0974 20.5674C56.7191 20.4798 56.6578 19.0219 56.1791 18.8512C55.7005 18.6805 55.4752 19.4186 55.4752 19.4186L54.2393 17.2458L53.737 15.8439C53.737 15.8439 53.1159 15.4708 53.3477 16.6207C53.5795 17.7705 54.3771 19.3604 54.3771 19.3604C54.3771 19.3604 56.9381 22.9731 57.4034 23.33C57.8688 23.687 59.078 23.7579 59.1392 23.7521C59.2003 23.7464 60.1153 21.6224 60.1153 21.6224L59.0654 21.4797Z" fill="#AE7461"/>
<path d="M71.3174 37.3527C71.3174 37.3527 74.6736 44.5557 72.764 45.6894C72.1047 46.0809 71.0653 44.3501 71.0653 44.3501C71.0653 44.3501 61.551 36.5235 60.6423 34.6671C59.7336 32.8107 57.0898 22.8073 57.0898 22.8073C57.0898 22.8073 58.9776 22.3301 58.7708 22.3739C58.7708 22.3739 61.7657 26.8803 62.5211 28.6846C62.9951 29.8167 63.8715 32.2601 63.8715 32.2601L68.5062 36.602C68.5062 36.602 70.4638 36.1584 71.3174 37.3527Z" fill="#AE7461"/>
<path d="M71.4752 42.5557C71.4876 42.5516 71.4226 42.3116 71.2371 41.957C71.0531 41.603 70.7311 41.1432 70.2761 40.7325C69.8194 40.3232 69.3281 40.0517 68.9566 39.9062C68.5844 39.7592 68.3389 39.7199 68.336 39.7327C68.3301 39.7535 68.5655 39.8231 68.9211 39.9879C69.2768 40.1516 69.7469 40.4276 70.1918 40.8262C70.635 41.2263 70.9591 41.6646 71.1595 42.0009C71.3611 42.3372 71.4551 42.5638 71.4752 42.5557Z" fill="#6F4439"/>
</svg>
