<svg width="121" height="121" viewBox="0 0 121 121" fill="none" xmlns="http://www.w3.org/2000/svg">
<path d="M61.2091 116.98C92.8474 116.98 118.495 103.164 118.495 86.1206C118.495 69.0772 92.8474 55.2607 61.2091 55.2607C29.5708 55.2607 3.92285 69.0772 3.92285 86.1206C3.92285 103.164 29.5708 116.98 61.2091 116.98Z" fill="#F0F0F0"/>
<path d="M61.028 97.8263C69.948 97.8263 77.1791 93.6516 77.1791 88.502C77.1791 83.3523 69.948 79.1777 61.028 79.1777C52.108 79.1777 44.877 83.3523 44.877 88.502C44.877 93.6516 52.108 97.8263 61.028 97.8263Z" fill="#E0E0E0"/>
<path d="M29.2074 102.78C39.0041 102.78 46.946 98.1945 46.946 92.5383C46.946 86.8821 39.0041 82.2969 29.2074 82.2969C19.4106 82.2969 11.4688 86.8821 11.4688 92.5383C11.4688 98.1945 19.4106 102.78 29.2074 102.78Z" fill="#E0E0E0"/>
<path d="M90.9896 103.711C100.786 103.711 108.728 99.1261 108.728 93.4699C108.728 87.8138 100.786 83.2285 90.9896 83.2285C81.1928 83.2285 73.251 87.8138 73.251 93.4699C73.251 99.1261 81.1928 103.711 90.9896 103.711Z" fill="#E0E0E0"/>
<path d="M46.8799 37.0258L36.9119 32.602L36.6699 27.157C38.6059 27.0409 39.2182 27.4619 40.0894 28.0016C41.3647 28.7881 45.7522 31.046 47.8189 32.0164L50.1687 25.4824C50.8453 25.3951 51.51 25.2327 52.1507 24.9984C52.8476 24.6838 53.6244 25.0952 53.6244 25.0952C53.6244 25.0952 51.5457 35.1624 50.7616 37.0258C50.3139 38.0833 48.5981 37.776 46.8799 37.0258Z" fill="#FFA8A7"/>
<path d="M36.6719 27.1449C36.6719 27.1449 37.9642 26.7505 39.7114 27.6289C41.4586 28.5074 45.4274 30.6612 45.4274 30.6612C45.4274 30.6612 44.2174 33.9693 42.7969 35.7311L37.7827 33.5918L36.6719 27.1449Z" fill="#455A64"/>
<path d="M52.2884 70.1244C52.3489 67.2059 52.92 65.1973 52.9878 64.389C52.9878 64.389 52.7724 47.0352 52.7724 44.2207L67.5683 43.6182C67.5683 43.6182 67.0843 61.8287 67.0843 64.239C67.0843 66.6493 65.55 78.759 65.0975 83.524C64.2408 84.642 63.2389 84.7194 61.8934 83.6256C61.8934 83.6256 61.7821 82.9601 61.6078 80.7627C61.4045 78.2484 61.0028 72.3944 60.9786 69.9308C60.9496 66.8961 60.9254 65.5579 61.0125 64.0962C61.1166 62.424 60.7148 51.1419 60.7148 51.1419C60.7148 51.1419 58.8611 61.9037 58.3989 65.5579C57.8713 69.7469 56.1773 82.0139 56.1725 84.5621C56.1725 85.0195 56.1725 85.5495 56.1725 86.123C56.1725 87.5024 56.1338 87.8679 56.354 88.4027C56.7412 89.3368 53.4331 89.9224 53.2806 89.2594L52.9249 86.5175V86.4376V84.7001C52.9394 82.0986 52.2013 74.3546 52.2884 70.1244Z" fill="#B16668"/>
<path d="M71.6316 87.9815C71.7211 88.2501 71.7046 88.5427 71.5856 88.7995C71.4719 89.0415 70.2232 89.7433 68.5389 89.6296C67.2908 89.5446 66.0883 89.1268 65.0565 88.4196C64.4128 87.9936 63.7448 87.9138 62.9124 87.8678C62.0799 87.8218 60.9764 87.4032 60.7997 87.0135C60.623 86.6239 60.8263 85.9512 60.8263 85.9512L71.6316 87.9815Z" fill="#263238"/>
<path d="M64.8412 82.7278L64.9743 82.6987C65.0468 82.6791 65.1227 82.675 65.1969 82.6866C65.2787 82.7118 65.3511 82.7607 65.4051 82.827C65.5701 83.0376 65.7143 83.2637 65.8358 83.5021C66.1891 84.0781 66.9297 84.5549 67.7379 84.9905C68.2897 85.2857 68.8294 85.5156 69.3956 85.7721C69.9619 86.0286 70.7436 86.1908 71.1985 86.4981C71.8592 86.9434 71.9439 88.0639 71.1985 88.5067C70.55 88.8867 68.839 89.3005 67.0482 88.7923C66.0802 88.5164 64.9864 87.4734 63.7062 87.3717C62.8907 87.3088 61.3491 87.0789 60.824 86.4594C60.6304 86.1859 60.8893 85.3147 61.1023 84.5645C61.3443 83.7442 61.5089 82.4567 61.7799 82.5293C61.7886 82.6768 61.8047 82.8238 61.8283 82.9698C61.8573 83.0956 61.9929 83.2117 62.0703 83.3085L62.3849 83.6715C62.5116 83.8398 62.6703 83.9812 62.852 84.0878C63.1738 84.2523 63.5586 84.1822 63.9119 84.1071C63.9289 84.1071 63.7667 83.4634 63.7498 83.4005C63.7327 83.3508 63.7285 83.2974 63.7377 83.2456C63.7588 83.1952 63.7963 83.1534 63.8442 83.127C64.1448 82.9254 64.4845 82.7894 64.8412 82.7278Z" fill="#455A64"/>
<path d="M59.5775 92.7536C59.6767 92.848 59.6477 93.4796 59.5363 93.6611C59.425 93.8426 58.7426 94.4234 57.5181 94.5129C56.3468 94.5952 55.3013 94.4379 54.6141 94.0023C53.9268 93.5667 53.5952 93.0851 53.5299 92.4172C53.4646 91.7493 53.5299 91.108 53.2226 90.595C52.9297 90.111 52.4603 89.5882 52.3586 89.3293C52.1384 88.7727 52.3586 87.9717 52.3586 87.9717L59.5775 92.7536Z" fill="#263238"/>
<path d="M56.3855 86.9343C56.3955 87.1871 56.4411 87.4372 56.521 87.6772C56.7032 88.1935 56.9469 88.6859 57.247 89.1437C57.3926 89.3843 57.5543 89.6147 57.731 89.8334C58.0844 90.2545 58.5248 90.5982 58.8999 91.0023C59.3008 91.3831 59.5574 91.8911 59.6259 92.4398C59.6767 93.357 58.6797 93.6691 57.9125 93.8071C57.0827 93.9519 56.231 93.9089 55.4199 93.6812C54.9941 93.5698 54.6094 93.3379 54.312 93.0135C54.0145 92.689 53.817 92.2856 53.7429 91.8517C53.6993 91.5976 53.7163 91.3362 53.6848 91.0797C53.5842 90.4938 53.3388 89.9423 52.9709 89.4753C52.758 89.2035 52.5747 88.9098 52.424 88.5992C52.182 88.0329 52.3756 87.3892 52.5305 86.8278C52.6611 86.3438 52.8112 85.7848 52.983 85.8308C52.983 86.0849 52.983 86.1115 53.1645 86.2833C53.4065 86.5011 53.4065 86.8278 53.6485 87.0093C53.5696 86.7979 53.5129 86.579 53.4791 86.3559C53.4639 86.2663 53.482 86.1742 53.5299 86.097C53.6112 86.0253 53.7082 85.9739 53.8131 85.9469C54.1743 85.8238 54.5474 85.7387 54.9263 85.6928C55.2867 85.6323 55.6548 85.6323 56.0153 85.6928C56.122 85.7116 56.2188 85.7672 56.2887 85.8501C56.3518 85.9429 56.3856 86.0525 56.3855 86.1647C56.3855 86.3123 56.3662 86.6923 56.3855 86.9343Z" fill="#455A64"/>
<path d="M57.3537 89.337C57.0125 89.0805 56.2478 89.0756 55.8291 89.1216C55.403 89.1575 54.9932 89.3016 54.6385 89.5403C54.5857 89.5771 54.5218 89.5943 54.4578 89.589C54.3937 89.5837 54.3335 89.5562 54.2876 89.5112C54.2606 89.4855 54.2397 89.4541 54.2262 89.4194C54.2127 89.3847 54.207 89.3474 54.2096 89.3102C54.2121 89.273 54.2228 89.2369 54.2409 89.2043C54.259 89.1717 54.284 89.1435 54.3142 89.1216C54.7056 88.8372 55.1696 88.6694 55.6524 88.6376C56.6834 88.565 56.9859 88.7417 56.9859 88.7417C56.9859 88.7417 57.4505 89.0321 57.3537 89.337Z" fill="#F5F5F5"/>
<path d="M58.1353 90.266C57.707 90.0119 56.8624 90.0482 56.4413 90.0942C56.0236 90.1362 55.6244 90.2881 55.2846 90.5346C55.2325 90.5727 55.1685 90.5909 55.1042 90.586C55.0399 90.5812 54.9794 90.5535 54.9337 90.508C54.9071 90.4821 54.8865 90.4507 54.8733 90.416C54.8601 90.3813 54.8545 90.3441 54.857 90.3071C54.8596 90.27 54.8701 90.234 54.8879 90.2014C54.9058 90.1688 54.9305 90.1405 54.9603 90.1184C55.3574 89.8164 55.831 89.6312 56.3276 89.5836C57.3585 89.511 57.6271 89.7215 57.6271 89.7215C57.7477 89.7676 57.8562 89.8406 57.9443 89.9349C58.0324 90.0293 58.0977 90.1425 58.1353 90.266Z" fill="#F5F5F5"/>
<path d="M55.2391 87.6383C55.6729 87.5632 56.1187 87.6007 56.5338 87.7472C56.7153 87.8488 56.8339 88.1368 56.7177 88.2094C56.3545 88.0619 55.9601 88.0078 55.5706 88.0521C55.1841 88.0894 54.8068 88.1925 54.455 88.357C54.3679 88.3957 54.2614 88.4514 54.1719 88.5022C54.1429 88.5188 54.1109 88.5292 54.0777 88.5327C54.0446 88.5363 54.011 88.533 53.9792 88.523C53.9474 88.513 53.918 88.4965 53.8929 88.4746C53.8677 88.4527 53.8474 88.4259 53.8331 88.3957C53.8083 88.3446 53.8038 88.2861 53.8204 88.2317C53.837 88.1774 53.8735 88.1314 53.9226 88.1029C54.323 87.8552 54.772 87.6967 55.2391 87.6383Z" fill="#F5F5F5"/>
<path d="M66.9783 84.5473C66.9197 84.4349 66.8338 84.339 66.7286 84.2684C66.6233 84.1978 66.502 84.1548 66.3757 84.1432C66.0055 84.0754 65.3497 84.3489 64.9431 84.6829C64.9043 84.7142 64.8739 84.7546 64.8544 84.8005C64.8349 84.8464 64.8269 84.8964 64.8312 84.9461C64.8355 84.9958 64.8519 85.0436 64.879 85.0855C64.9061 85.1274 64.9431 85.162 64.9867 85.1862C65.0416 85.2168 65.1046 85.2294 65.1671 85.2225C65.2295 85.2156 65.2883 85.1893 65.3351 85.1475C65.7836 84.7408 66.3733 84.5254 66.9783 84.5473Z" fill="#F5F5F5"/>
<path d="M68.1279 85.1842C68.0472 85.0702 67.9401 84.9772 67.8159 84.9132C67.6916 84.8491 67.5538 84.816 67.414 84.8164C67.414 84.8164 66.446 84.8454 65.8459 85.402C65.8095 85.4327 65.7811 85.4717 65.7629 85.5157C65.7447 85.5596 65.7373 85.6073 65.7413 85.6547C65.7453 85.7021 65.7607 85.7478 65.786 85.7881C65.8114 85.8283 65.846 85.8619 65.887 85.886C65.9397 85.9154 66.0003 85.9274 66.0602 85.9205C66.1201 85.9135 66.1764 85.8879 66.221 85.8473C66.4688 85.6009 66.7688 85.4133 67.0989 85.2986C67.429 85.1838 67.7807 85.1447 68.1279 85.1842Z" fill="#F5F5F5"/>
<path d="M69.3954 85.7725C69.3035 85.6665 69.1897 85.5817 69.0618 85.5241C68.934 85.4664 68.7951 85.4372 68.6549 85.4385C68.1045 85.472 67.579 85.6796 67.1545 86.0314C67.1181 86.0621 67.0896 86.1011 67.0715 86.145C67.0533 86.189 67.0459 86.2367 67.0499 86.2841C67.0539 86.3315 67.0693 86.3772 67.0946 86.4175C67.12 86.4577 67.1546 86.4913 67.1956 86.5154C67.2483 86.5448 67.3089 86.5568 67.3688 86.5499C67.4287 86.5429 67.485 86.5173 67.5295 86.4767C67.7639 86.2217 68.0548 86.0252 68.3788 85.9029C68.7028 85.7806 69.051 85.736 69.3954 85.7725Z" fill="#F5F5F5"/>
<path d="M58.6341 66.371L60.1151 56.5627L60.7419 64.4423C60.7927 65.086 60.6282 67.4721 60.6693 69.442C60.7104 71.4119 61.5671 80.2739 61.5671 80.2739C61.5671 80.2739 63.2442 81.421 65.4754 80.2739C65.5359 80.0924 66.7241 70.0083 66.8306 68.7136C66.9637 67.1115 67.196 65.6619 67.2493 64.2971C67.3025 62.9322 67.3993 60.1105 67.3775 57.9567C67.3558 55.8029 67.5614 43.6182 67.5614 43.6182L52.4703 43.6641L52.2816 64.0986C52.1896 64.556 51.6742 68.8442 51.8097 70.9908C51.9452 73.1373 52.8551 83.115 52.8551 83.115C52.8551 83.115 54.2152 83.9838 56.2625 83.115C56.2625 83.115 57.5306 72.951 57.896 71.0343C58.2614 69.1177 58.5034 67.2325 58.6341 66.371Z" fill="#37474F"/>
<path d="M60.1152 56.5629L60.5726 52.4029C62.0236 52.2408 63.4141 51.7311 64.6261 50.917C64.6261 50.917 64.3841 51.4494 63.1185 52.2795C62.6064 52.6133 62.0443 52.8632 61.4535 53.02L60.984 56.3305L60.742 64.2972L60.1152 56.5629Z" fill="#263238"/>
<path d="M64.0088 22.3799C65.9641 22.3799 66.8426 22.7501 67.7961 23.9117C68.7496 25.0733 73.2822 31.1717 73.2822 31.1717C73.2822 31.1717 76.4863 28.125 78.1222 26.61C79.1435 25.5598 80.1453 24.5313 81.2416 24.2167C82.3863 23.8875 81.8151 26.0171 82.2701 26.1914L80.9173 28.1613C80.9173 28.1613 75.9249 34.8066 74.18 35.8375C73.5751 36.1957 72.9362 36.9652 71.2494 35.5955C69.0351 33.7926 65.0179 29.2672 65.0179 29.2672L64.0088 22.3799Z" fill="#B16668"/>
<path d="M63.2148 22.3778C65.0202 22.0729 66.1648 21.9591 67.7959 23.6749C69.427 25.3907 72.5827 30.2331 72.5827 30.2331C72.5827 30.2331 72.3963 32.7185 69.1947 33.6913L64.2458 30.2331L63.2148 22.3778Z" fill="#455A64"/>
<path d="M52.2886 45.7385C54.319 47.2171 63.5247 48.8554 67.796 45.7385C67.796 45.7385 67.6968 33.8055 67.3628 27.4893C67.3459 27.2037 67.3265 26.9254 67.2975 26.6544C67.2975 26.5648 67.2757 26.4753 67.266 26.3857C67.2189 26.0087 67.147 25.6352 67.0506 25.2677C67.0337 25.2072 67.0143 25.1467 66.995 25.0862C66.9558 24.9497 66.909 24.8156 66.8546 24.6845C66.828 24.6143 66.799 24.5441 66.7675 24.4764C66.7394 24.4118 66.7079 24.3488 66.6731 24.2876C66.6693 24.2759 66.6645 24.2645 66.6586 24.2537C66.6271 24.1932 66.5908 24.1327 66.557 24.0746C66.5231 24.0166 66.4795 23.9488 66.4335 23.8835C66.3876 23.8181 66.3513 23.7649 66.3101 23.7116C66.269 23.6584 66.2109 23.5906 66.1577 23.5326C66.1083 23.4756 66.0558 23.4214 66.0004 23.3704L65.889 23.2664C65.8542 23.2323 65.817 23.2008 65.7777 23.172C65.7293 23.1308 65.6761 23.0921 65.6253 23.0558C65.4582 22.939 65.2817 22.8362 65.0977 22.7485C65.0458 22.7214 64.9925 22.6971 64.938 22.6759C64.9259 22.6759 64.9089 22.6759 64.9017 22.6589L64.7105 22.5863C64.6011 22.5443 64.4897 22.5079 64.3765 22.4774C64.2628 22.446 64.1345 22.4169 64.0208 22.3879C63.9071 22.3589 63.7304 22.3879 63.5658 22.3879H63.227C63.1085 22.3879 62.985 22.3879 62.864 22.3879C61.2668 22.4581 59.5801 22.1459 57.7409 22.3685C57.6199 22.3855 53.7721 22.8162 52.884 23.1381C52.0563 23.4406 51.311 24.912 51.127 25.7275C50.5777 28.1281 52.9977 35.923 52.9977 35.923L52.2886 45.7385Z" fill="#D93151"/>
<path d="M57.2011 22.8184C57.114 23.1161 57.6851 24.0115 58.6071 24.4253C59.5292 24.8391 60.8868 25.0303 61.7531 24.7327C62.6195 24.435 63.6649 23.3557 62.7526 22.3949C61.1869 22.4458 59.534 22.1529 57.7359 22.3732C57.7287 22.3707 57.2907 22.5208 57.2011 22.8184Z" fill="#455A64"/>
<path opacity="0.3" d="M67.4063 28.4062C65.8575 28.9459 63.3141 29.3743 60.1148 29.5606C57.1657 29.707 54.2094 29.5448 51.2939 29.0766C51.6448 31.1142 52.2619 33.4326 52.654 34.7805C58.2466 35.9204 64.6451 35.0225 67.5999 34.086C67.5467 32.0145 67.4886 30.0954 67.4063 28.4062Z" fill="black"/>
<path d="M57.6467 13.9874L57.0804 14.6069L56.79 11.4077C56.5603 11.3809 56.3276 11.4069 56.1096 11.4836C55.8915 11.5604 55.6938 11.6859 55.5316 11.8505C54.9919 12.4023 55.2896 14.1326 55.9672 15.8266C55.9672 15.8266 56.623 18.9097 56.8868 19.4155C57.061 19.7286 57.3499 19.9619 57.6926 20.0664L57.6467 13.9874Z" fill="#263238"/>
<path d="M57.5745 15.9718C57.3325 16.1195 56.9719 15.6427 56.667 15.3233C56.362 15.0038 55.3626 14.5658 54.8641 15.6137C54.3655 16.6615 55.3045 18.0966 56.091 18.3434C57.4438 18.7694 57.6471 17.9006 57.6471 17.9006L57.739 22.8809C59.1571 25.4461 63.956 24.1321 62.1579 22.4308V21.1652C62.8379 21.2148 63.5205 21.2148 64.2004 21.1652C65.1975 21.0127 65.6064 20.323 65.9089 19.2437C66.3929 17.5134 66.5769 16.1146 66.1655 12.7097C65.7153 8.97803 61.3739 8.93931 59.0289 10.4131C56.6839 11.8869 57.5745 15.9718 57.5745 15.9718Z" fill="#B16668"/>
<path d="M56.993 9.36797C57.8152 9.01666 58.6739 8.75775 59.5533 8.59599C61.4482 8.18459 63.3769 7.80707 65.1048 6.93345C65.3062 6.80226 65.5421 6.73402 65.7824 6.73743C66.2398 6.79793 66.4382 7.34969 66.4576 7.80949C66.4746 8.23605 66.4189 8.66239 66.293 9.07031C66.4311 8.93879 66.6153 8.86684 66.8059 8.87001C66.9965 8.87318 67.1783 8.95121 67.3118 9.08725C67.4384 9.23032 67.5305 9.40041 67.5813 9.58453C67.632 9.76866 67.64 9.96194 67.6047 10.1496C67.4933 10.9966 66.8448 11.7033 66.0776 12.0856C65.2903 12.4282 64.4387 12.5982 63.5802 12.5841C62.3855 12.6163 61.1908 12.523 60.0155 12.3058C59.7333 12.2357 59.4411 12.2144 59.1516 12.2429C59.0071 12.2598 58.8702 12.3168 58.7565 12.4075C58.6427 12.4982 58.5566 12.6189 58.5079 12.756C58.3821 13.2279 58.2514 16.4319 57.5955 16.4561C57.4745 16.4561 57.0075 15.6503 56.7026 15.3623C56.3202 15.0017 55.9354 12.255 55.8677 11.7468C55.8591 11.7075 55.8408 11.6709 55.8144 11.6403C55.3837 11.0353 55.8894 10.0189 56.4218 9.68741C56.6057 9.56971 56.7964 9.46304 56.993 9.36797Z" fill="#263238"/>
<path d="M56.0492 11.6723C55.9723 11.7625 55.8784 11.8367 55.7728 11.8907C55.6672 11.9446 55.552 11.9773 55.4338 11.9867C55.3156 11.9961 55.1967 11.9822 55.0839 11.9457C54.9711 11.9092 54.8666 11.8508 54.7763 11.7739C54.686 11.697 54.6118 11.6031 54.5579 11.4975C54.5039 11.3919 54.4713 11.2767 54.4618 11.1585C54.4524 11.0403 54.4663 10.9214 54.5029 10.8086C54.5394 10.6958 54.5978 10.5912 54.6747 10.501L56.0492 11.6723Z" fill="#263238"/>
<path d="M62.1529 21.1628C62.1529 21.1628 59.929 20.9498 59.1521 20.536C58.696 20.2979 58.3223 19.9276 58.0801 19.4736C58.1969 19.9283 58.4043 20.3546 58.6899 20.7272C59.2586 21.4532 62.1554 21.8477 62.1554 21.8477L62.1529 21.1628Z" fill="#9A4A4D"/>
<path d="M61.4683 15.4129C61.4645 15.5 61.4352 15.5841 61.384 15.6548C61.3328 15.7254 61.262 15.7795 61.1804 15.8102C61.0988 15.841 61.0099 15.8471 60.9249 15.8278C60.8398 15.8085 60.7623 15.7646 60.7019 15.7016C60.6416 15.6386 60.601 15.5593 60.5854 15.4735C60.5697 15.3877 60.5796 15.2992 60.6138 15.2189C60.648 15.1387 60.705 15.0703 60.7777 15.0221C60.8505 14.974 60.9358 14.9483 61.023 14.9482C61.0827 14.9495 61.1417 14.9625 61.1964 14.9866C61.2511 15.0106 61.3005 15.0452 61.3419 15.0883C61.3832 15.1315 61.4157 15.1823 61.4374 15.238C61.4591 15.2937 61.4696 15.3531 61.4683 15.4129Z" fill="#263238"/>
<path d="M61.0005 13.7311L60.047 14.2563C59.9789 14.1258 59.964 13.9739 60.0055 13.8326C60.047 13.6913 60.1417 13.5717 60.2697 13.4988C60.3326 13.4647 60.4018 13.4437 60.4731 13.4369C60.5444 13.4302 60.6163 13.4379 60.6845 13.4596C60.7527 13.4813 60.8159 13.5165 60.8702 13.5632C60.9245 13.6098 60.9688 13.6669 61.0005 13.7311Z" fill="#263238"/>
<path d="M61.6732 18.4912L62.9195 18.9559C62.8916 19.0388 62.8473 19.1153 62.7893 19.1809C62.7312 19.2464 62.6606 19.2996 62.5816 19.3373C62.5026 19.375 62.4168 19.3964 62.3294 19.4003C62.2419 19.4042 62.1546 19.3905 62.0725 19.36C61.9077 19.2934 61.7746 19.1664 61.7004 19.0049C61.6262 18.8434 61.6165 18.6596 61.6732 18.4912Z" fill="#9A4A4D"/>
<path d="M65.4049 14.1018L64.5361 13.4339C64.5762 13.3745 64.628 13.3239 64.6883 13.2852C64.7486 13.2465 64.8162 13.2206 64.887 13.209C64.9577 13.1975 65.0301 13.2005 65.0996 13.218C65.1691 13.2354 65.2343 13.2669 65.2912 13.3105C65.4089 13.402 65.4865 13.5356 65.5077 13.6832C65.5289 13.8308 65.4921 13.9809 65.4049 14.1018Z" fill="#263238"/>
<path d="M65.1364 15.2852C65.138 15.3449 65.1277 15.4043 65.1061 15.46C65.0845 15.5157 65.052 15.5665 65.0106 15.6096C64.9691 15.6526 64.9195 15.6869 64.8647 15.7106C64.8098 15.7342 64.7508 15.7468 64.6911 15.7474C64.599 15.7507 64.508 15.7265 64.4298 15.6778C64.3516 15.6291 64.2898 15.5582 64.2522 15.4741C64.2146 15.39 64.203 15.2966 64.2188 15.2058C64.2347 15.1151 64.2773 15.0311 64.3413 14.9648C64.4052 14.8984 64.4875 14.8527 64.5776 14.8334C64.6676 14.8142 64.7614 14.8223 64.8469 14.8567C64.9323 14.8912 65.0055 14.9503 65.0571 15.0267C65.1087 15.103 65.1363 15.193 65.1364 15.2852Z" fill="#263238"/>
<path d="M62.9873 14.9678L63.1349 17.6467L64.5337 17.17L62.9873 14.9678Z" fill="#9A4A4D"/>
<path d="M55.0113 22.7236C52.0396 22.864 51.1611 23.3311 50.1713 25.4631C49.4453 27.0216 45.8153 36.6483 45.1498 38.3714C44.5666 39.9081 44.4892 40.697 45.7621 41.7472C47.035 42.7975 48.3176 43.7752 49.6341 44.7456C50.4351 45.3385 51.1538 45.9823 51.9621 46.5631C53.235 47.4754 54.4789 48.4991 55.8341 49.2662C57.4555 50.1882 60.3861 51.4006 61.9301 49.7115C62.235 49.3775 62.5182 48.9855 62.3512 48.5015C62.2219 48.1901 61.9883 47.9334 61.6905 47.7755C61.3947 47.6187 61.0853 47.4891 60.7661 47.3883C60.0514 47.1313 59.3626 46.8072 58.7091 46.4203C59.2729 46.2412 59.89 46.2848 60.4636 46.1783C60.6257 46.1489 60.7723 46.0632 60.8774 45.9363C60.9309 45.874 60.9603 45.7945 60.9603 45.7124C60.9603 45.6303 60.9309 45.5509 60.8774 45.4886C60.8065 45.4353 60.7232 45.4012 60.6354 45.3894C59.8287 45.2087 59.0132 45.0546 58.1888 44.9271C57.4269 44.8391 56.6734 44.6894 55.9358 44.4794C54.7475 44.0922 53.9998 43.2186 53.1528 42.3498C52.2259 41.3988 51.3426 40.4138 50.4908 39.3926L54.4499 30.078C54.4499 30.078 56.4948 24.7347 55.0113 22.7236Z" fill="#B16668"/>
<path d="M55.4348 22.6611C54.295 22.7241 52.5308 22.8596 51.7056 23.3871C50.7497 23.9994 50.3891 24.4713 49.4404 26.7945C48.4918 29.1177 46.626 33.9795 46.626 33.9795C47.2659 34.8098 48.1012 35.4691 49.0575 35.8985C50.0139 36.3279 51.0615 36.5141 52.1073 36.4406L55.2533 29.1806C55.2533 29.1806 56.7174 25.328 55.4348 22.6611Z" fill="#455A64"/>
<path d="M59.9673 48.8843C59.5922 47.3476 60.9934 46.0335 62.1308 45.2543C63.8853 44.0443 65.4414 43.3183 67.2491 42.2341C68.8947 41.2419 73.9332 37.7353 73.9332 37.7353C73.9332 37.7353 76.5395 33.6334 78.323 30.4947C80.5349 26.6106 82.2749 24.1277 85.9775 24.573L85.9436 29.2581C85.9436 29.2581 78.0399 39.998 77.5535 40.5764C77.0671 41.1548 76.871 41.4137 76.0361 41.7864C73.7734 42.8319 70.9106 44.1387 68.6358 45.5568C67.9859 45.955 67.4779 46.5477 67.1838 47.2508C66.9393 47.8138 66.6237 48.3433 66.2448 48.8262C66.06 49.0622 65.8612 49.2868 65.6495 49.499C65.5067 49.6393 65.2429 49.9273 65.0275 49.9055C64.9763 49.8976 64.9277 49.8777 64.8857 49.8474C64.8436 49.8171 64.8093 49.7773 64.7855 49.7313C64.7382 49.6367 64.7141 49.5321 64.7154 49.4264C64.7009 48.7802 65.1752 48.2164 65.2405 47.5702C65.2405 47.5121 65.1655 47.5412 65.1534 47.4855C65.1413 47.4299 64.1443 48.0082 64.0571 48.0663C63.7021 48.3133 63.3611 48.5799 63.0359 48.8649C62.7068 49.1481 62.3801 49.4385 62.0437 49.7119C61.8868 49.8647 61.6891 49.9688 61.4745 50.0117C61.2598 50.0547 61.0372 50.0346 60.8337 49.9539C60.6182 49.8522 60.4283 49.7032 60.2783 49.518C60.1283 49.3329 60.022 49.1162 59.9673 48.8843Z" fill="#FFBDA7"/>
<path d="M86.452 24.5296C85.2686 24.2876 82.3694 24.319 81.0578 26.0808C79.6736 27.9369 75.3926 34.9695 75.3926 34.9695C75.3926 34.9695 76.4864 37.3169 79.6881 38.1155L85.1839 30.628L86.452 24.5296Z" fill="#455A64"/>
<path d="M96.4756 97.403C96.5724 97.783 96.7732 98.855 98.7722 98.855C100.771 98.855 101.918 98.0347 102.308 97.0207C102.697 96.0067 102.475 95.2517 102.438 94.3587C102.402 93.4657 103.06 92.9067 103.206 92.4227C103.421 91.7185 102.833 90.748 102.833 90.748L96.4756 97.403Z" fill="#263238"/>
<path d="M77.2605 90.8762C77.2071 91.035 77.1878 91.2032 77.2036 91.37C77.2194 91.5367 77.2702 91.6983 77.3524 91.8442C77.4976 92.0402 78.8383 93.0131 80.4984 92.8122C81.7128 92.6937 82.8811 92.2863 83.9058 91.624C84.8738 91.0529 85.5393 90.9706 86.5242 90.973C87.5092 90.9754 88.1819 90.7915 88.2642 90.5423C88.407 90.1091 88.4167 89.8308 88.2086 89.838L77.2605 90.8762Z" fill="#263238"/>
<path d="M100.525 74.2949C100.268 72.1912 99.5615 70.1674 98.453 68.3611C98.453 68.3611 97.485 54.0831 96.6622 46.5811H81.8809C81.8809 46.5811 82.3213 66.0354 82.5585 68.8886C82.74 71.0666 84.2331 84.7203 84.2355 84.7469L84.4509 87.0241C85.6101 87.6073 86.52 87.5202 87.5074 86.8111L87.7179 84.7953C87.7179 84.7953 88.9279 76.1389 89.0029 74.0747C89.0864 72.3119 88.8912 70.547 88.4245 68.8451L90.2178 59.1481C90.2178 59.1481 91.6504 66.0016 92.4611 69.8397C93.388 74.2368 98.7531 88.6358 98.7531 88.6407L99.0943 89.8386C99.0193 91.1454 102.163 90.2548 102.129 89.2263C102.124 89.2287 101.117 78.7646 100.525 74.2949Z" fill="#FFBDA7"/>
<path d="M91.8774 70.0303C91.0691 66.1922 90.2172 59.1403 90.2172 59.1403L89.0895 68.9921C85.0384 70.7442 82.2482 69.0623 82.2482 69.0623C81.5222 61.7636 81.8803 46.5732 81.8803 46.5732H96.6617C97.4797 54.0752 98.9341 68.1911 98.9341 68.1911C98.9341 68.1911 97.7822 70.6256 91.8774 70.0303Z" fill="#37474F"/>
<path d="M90.217 59.1504L89.2151 54.5379C89.2151 54.5379 86.979 54.0273 85.3818 52.7471C85.3818 52.7471 85.9675 54.2184 88.4165 55.3437L89.4402 59.6658L89.1667 68.3198L90.217 59.1504Z" fill="#263238"/>
<path d="M99.0989 89.8401L98.9779 89.4432C98.8472 89.5739 98.8665 89.6852 98.8617 90.041C98.8617 90.3217 98.8617 90.5927 98.8254 90.9654C98.7782 91.4521 98.6891 91.9339 98.5592 92.4053C98.3003 93.4991 98.0099 93.9396 97.2403 95.2924C97.0564 95.6118 96.6159 96.1466 96.4853 96.5024C96.3546 96.8581 96.3159 97.4704 96.7273 97.7124C97.8961 98.4045 99.699 98.2157 100.841 97.6785C101.269 97.4835 101.632 97.1698 101.887 96.7748C102.141 96.3797 102.278 95.9198 102.279 95.4497C102.279 95.1714 102.221 94.8955 102.209 94.6172C102.218 93.9754 102.384 93.3456 102.693 92.7828C102.868 92.4572 103.009 92.1141 103.114 91.7592C103.269 91.113 102.964 90.462 102.71 89.8812C102.492 89.3803 102.238 88.71 102.066 88.7874L102.134 89.2278C101.954 89.4989 101.408 89.8256 100.732 89.9538C100.302 90.041 99.1473 90.1692 99.0989 89.8401Z" fill="#455A64"/>
<path d="M84.3274 85.7316C84.1749 85.7316 84.02 85.8502 83.749 86.247C83.3762 86.7913 82.8951 87.2526 82.3357 87.6022C81.3314 88.3089 79.7415 89.0228 78.108 89.635C77.2174 89.9666 77.048 90.603 77.3408 91.1863C77.803 91.6461 79.3736 92.723 81.9533 91.9365C83.553 91.4525 84.1168 90.6297 85.2615 90.4845C86.0698 90.3804 87.4734 90.603 88.2986 89.9351C88.5599 89.3108 88.3494 88.6816 88.2671 87.8152C88.1848 86.9488 87.9065 85.5622 87.6331 85.6178L87.5847 86.0752C87.3645 87.0795 85.0558 87.1763 84.4024 86.5205L84.3274 85.7316Z" fill="#455A64"/>
<path d="M90.5607 24.3193C93.1259 24.4791 96.4728 24.4476 96.6301 27.0757C96.8721 31.1074 96.0953 41.0415 96.0953 41.0415L96.9253 47.9942C95.045 50.0028 86.4927 51.0531 81.6914 48.1079C81.6914 48.1079 81.418 33.0241 81.7955 30.742C82.4731 26.628 84.4793 24.6702 85.9772 24.5541L90.5607 24.3193Z" fill="#D93151"/>
<path d="M91.7174 25.6091C92.3079 25.0138 92.4918 24.4427 92.0707 24.3991C91.5553 24.3628 91.0374 24.341 90.551 24.3096L86.921 24.4959C86.921 24.4959 86.0958 25.3284 86.3402 26.0229C86.5846 26.7175 87.3808 27.0635 88.3585 27.0248C89.6112 26.9689 90.8026 26.4667 91.7174 25.6091Z" fill="#455A64"/>
<path opacity="0.3" d="M81.7477 31.1191C81.6582 32.0726 81.6146 33.9554 81.6025 36.1358C86.2804 37.7257 93.0467 36.8739 96.4129 36.2834C96.5146 34.5144 96.6114 33.0818 96.6549 31.2692C91.3261 32.4284 85.2592 31.9976 81.7477 31.1191Z" fill="black"/>
<path d="M94.0825 24.665C95.7305 24.665 97.0131 24.7691 98.1651 26.1848C98.9709 27.1722 104.958 34.5435 105.667 35.7704C106.376 36.9974 106.425 37.4789 105.374 39.0181C104.503 40.2934 99.6485 47.4881 98.0779 49.1167C96.5074 50.7454 94.4092 51.0188 93.371 50.5832C92.3329 50.1476 91.0019 49.107 93.5767 47.9212C95.3821 47.0984 96.4202 46.2539 96.6308 45.4407L96.4977 44.2791H97.4657L100.883 37.2684L94.9029 30.8506C94.9029 30.8506 92.8556 27.2762 94.0825 24.665Z" fill="#FFBDA7"/>
<path d="M93.5207 24.5613C93.5207 24.5613 95.7325 24.5225 96.565 24.8154C97.3975 25.1082 98.0848 25.7834 99.2585 27.2354C100.432 28.6874 103.67 32.8207 103.67 32.8207C103.67 32.8207 103.307 35.5916 99.7981 36.3854L94.675 31.3276C94.675 31.3276 92.5841 29.2077 93.5207 24.5613Z" fill="#455A64"/>
<path d="M88.6971 18.1458C90.5239 16.8083 90.9205 14.2431 89.583 12.4163C88.2455 10.5895 85.6804 10.1929 83.8536 11.5304C82.0268 12.8679 81.6302 15.4331 82.9677 17.2598C84.3052 19.0866 86.8703 19.4833 88.6971 18.1458Z" fill="#263238"/>
<path d="M93.4118 17.6445C93.4118 17.6445 92.7923 20.776 92.5333 21.2963C92.3585 21.6159 92.0659 21.8546 91.7178 21.9618V19.7669L93.4118 17.6445Z" fill="#263238"/>
<path d="M92.5038 13.1895C92.7355 13.1583 92.9713 13.1804 93.1932 13.2542C93.4151 13.3281 93.6172 13.4516 93.784 13.6155C94.3406 14.1672 94.0623 15.9217 93.4065 17.6448L92.1602 17.8069L92.5038 13.1895Z" fill="#263238"/>
<path d="M91.7827 17.8138C92.0368 17.9614 92.3877 17.4726 92.6926 17.1434C92.9975 16.8143 93.9994 16.3569 94.5197 17.4121C95.04 18.4672 94.1131 19.9289 93.3218 20.1902C91.9593 20.6428 91.7391 19.7667 91.7391 19.7667L91.7173 24.8487C90.0499 27.0606 85.3188 26.9493 87.2524 24.6382L87.2331 23.1329C87.2331 23.1329 85.994 23.3411 85.389 23.2564C84.3775 23.116 83.7313 22.3319 83.4095 21.2453C82.8916 19.5029 82.6835 18.0993 83.044 14.6387C83.4433 10.8563 87.8332 10.7474 90.229 12.2042C92.6248 13.6611 91.7827 17.8138 91.7827 17.8138Z" fill="#FFBDA7"/>
<path d="M91.7906 18.2373C91.9164 18.2373 92.3835 17.4339 92.6932 17.1435C93.1191 16.7442 92.5045 13.1892 92.5045 13.1892C92.649 12.8731 92.6952 12.5208 92.6369 12.1782C92.5786 11.8355 92.4187 11.5183 92.1778 11.2677C91.5752 10.624 90.7258 9.84235 88.0638 10.2005C86.1495 10.457 84.0732 11.0887 82.3743 10.2876C82.2277 10.8371 82.2477 11.4178 82.4317 11.956C82.6156 12.4941 82.9554 12.9655 83.4077 13.3102C83.4077 13.3102 84.0248 13.6926 85.6317 13.8644C87.2385 14.0362 89.7457 13.7628 90.0772 13.7095C90.5418 13.6393 90.6483 14.0895 90.9194 15.3164C91.1565 16.4054 91.3671 18.2349 91.7906 18.2373Z" fill="#263238"/>
<path d="M92.5068 13.465L94.0096 12.6277C93.9598 12.5263 93.89 12.4362 93.8043 12.3626C93.7187 12.2891 93.619 12.2337 93.5113 12.1997C93.4037 12.1658 93.2902 12.1541 93.1779 12.1652C93.0655 12.1764 92.9566 12.2102 92.8577 12.2647C92.656 12.3811 92.507 12.5709 92.4416 12.7945C92.3763 13.018 92.3996 13.2582 92.5068 13.465Z" fill="#263238"/>
<path d="M87.5605 17.4049C87.5671 17.4925 87.5992 17.5763 87.6528 17.6458C87.7065 17.7154 87.7793 17.7677 87.8623 17.7964C87.9453 17.8251 88.0349 17.8289 88.12 17.8073C88.2052 17.7857 88.2821 17.7397 88.3414 17.6749C88.4007 17.6101 88.4398 17.5293 88.4537 17.4426C88.4677 17.3559 88.456 17.267 88.4201 17.1869C88.3841 17.1067 88.3255 17.0388 88.2515 16.9916C88.1774 16.9443 88.0912 16.9198 88.0034 16.9209C87.9421 16.9224 87.8818 16.9363 87.8261 16.9617C87.7703 16.9871 87.7202 17.0234 87.6789 17.0686C87.6375 17.1138 87.6057 17.1669 87.5854 17.2247C87.565 17.2825 87.5566 17.3438 87.5605 17.4049Z" fill="#263238"/>
<path d="M87.8193 15.7663L88.7873 16.2817C88.8536 16.1481 88.8654 15.9939 88.8202 15.8517C88.7751 15.7095 88.6765 15.5904 88.5453 15.5194C88.4816 15.4873 88.4121 15.4682 88.3408 15.4632C88.2696 15.4582 88.1981 15.4675 88.1305 15.4905C88.0629 15.5135 88.0006 15.5497 87.9472 15.5971C87.8937 15.6444 87.8503 15.7019 87.8193 15.7663Z" fill="#263238"/>
<path d="M83.3275 16.214L84.1962 15.5219C84.1542 15.463 84.1006 15.4134 84.0388 15.376C83.9769 15.3387 83.908 15.3144 83.8364 15.3046C83.7647 15.2949 83.6919 15.2999 83.6222 15.3194C83.5526 15.3388 83.4877 15.3723 83.4315 15.4178C83.315 15.5116 83.2391 15.6467 83.2197 15.795C83.2004 15.9433 83.2389 16.0934 83.3275 16.214Z" fill="#263238"/>
<path d="M83.7459 17.4049C83.7525 17.4925 83.7846 17.5763 83.8382 17.6458C83.8919 17.7154 83.9647 17.7677 84.0477 17.7964C84.1307 17.8251 84.2203 17.8289 84.3054 17.8073C84.3906 17.7857 84.4675 17.7397 84.5268 17.6749C84.5861 17.6101 84.6252 17.5293 84.6391 17.4426C84.6531 17.3559 84.6414 17.267 84.6055 17.1869C84.5695 17.1067 84.5109 17.0388 84.4369 16.9916C84.3628 16.9443 84.2766 16.9198 84.1888 16.9209C84.1276 16.9228 84.0675 16.9369 84.0119 16.9623C83.9563 16.9878 83.9063 17.0242 83.8651 17.0694C83.8238 17.1145 83.7919 17.1674 83.7715 17.2251C83.751 17.2827 83.7423 17.3439 83.7459 17.4049Z" fill="#263238"/>
<path d="M87.2334 23.1453C87.2334 23.1453 89.4429 22.7121 90.2197 22.3007C90.6289 22.0638 90.9403 21.6889 91.0981 21.2432C91.0562 21.6846 90.8882 22.1046 90.6141 22.4532C90.0454 23.1792 87.2455 23.818 87.2455 23.818L87.2334 23.1453Z" fill="#F0997A"/>
<path d="M87.7083 20.4688L86.4668 20.9358C86.4937 21.0193 86.5372 21.0966 86.5947 21.1629C86.6522 21.2292 86.7225 21.2831 86.8014 21.3216C86.8803 21.36 86.9661 21.3821 87.0538 21.3865C87.1414 21.3909 87.229 21.3775 87.3114 21.3472C87.4784 21.2806 87.613 21.1519 87.687 20.988C87.761 20.8242 87.7687 20.6381 87.7083 20.4688Z" fill="#F0997A"/>
<path d="M86.394 16.9473L86.2464 19.6262L84.8477 19.1495L86.394 16.9473Z" fill="#F0997A"/>
<path d="M35.4741 24.827L35.2151 24.8536C34.3642 24.9446 33.5037 24.867 32.6827 24.6252C31.8618 24.3835 31.0965 23.9824 30.4306 23.4449C29.7647 22.9073 29.2113 22.2438 28.8019 21.4923C28.3925 20.7408 28.1352 19.916 28.0447 19.065C27.8719 17.4075 28.3637 15.7492 29.4122 14.4539C30.4607 13.1586 31.9802 12.3321 33.6373 12.1559L34.3633 12.0784C36.017 11.9046 37.6723 12.3925 38.9674 13.4355C40.2625 14.4784 41.0921 15.9917 41.2748 17.6444C41.3667 18.4971 41.2895 19.3596 41.0476 20.1824C40.8056 21.0052 40.4037 21.7722 39.8649 22.4394C39.326 23.1066 38.6608 23.6609 37.9073 24.0706C37.1539 24.4804 36.327 24.7374 35.4741 24.827Z" fill="#263238"/>
<path d="M32.125 12.5043C33.8376 11.8101 35.5924 11.2249 37.3788 10.7522C38.0855 10.5478 38.825 10.4813 39.5568 10.5562C39.9212 10.5974 40.2716 10.7202 40.5821 10.9154C40.8925 11.1107 41.155 11.3733 41.35 11.6839C41.7856 12.468 41.592 13.4916 41.0451 14.208C41.5253 14.3536 41.9479 14.6455 42.254 15.0431C42.5602 15.4406 42.7345 15.9238 42.7526 16.4252C42.7707 16.9266 42.6318 17.4212 42.3551 17.8398C42.0785 18.2583 41.678 18.5801 41.2097 18.76C40.5781 18.9612 39.9073 19.0069 39.2543 18.8931C37.8767 18.7561 36.5417 18.3386 35.3315 17.6661C34.1175 16.9871 33.1518 15.9384 32.5751 14.6726" fill="#263238"/>
<path d="M38.683 87.9475C37.9982 87.1682 37.8844 86.4301 38.0175 85.0193C38.1506 83.6084 39.5905 71.3293 39.9535 68.2559C40.5731 63.0916 40.7884 48.3514 40.4521 44.748L26.6193 45.474C25.5521 47.9545 24.7342 51.0207 24.7632 55.88C24.785 59.5754 24.4365 69.5918 24.4365 69.5918C24.4365 69.5918 22.7135 71.0196 21.4333 73.8969C20.3031 76.4379 18.8463 85.2709 18.8463 85.2709C18.7325 85.6553 18.5901 86.0306 18.4204 86.3938C18.1086 86.7521 17.9225 87.2025 17.8904 87.6764C17.8498 89.2105 17.9723 90.7445 18.2558 92.2526C18.4034 93.0343 18.8753 93.5449 19.6401 93.874C19.8101 93.9481 19.9944 93.9837 20.1797 93.9781C20.2758 93.9796 20.3692 93.947 20.4435 93.8861C20.579 93.7579 20.4677 93.4457 20.4435 93.2884C20.4104 93.0365 20.3943 92.7826 20.3951 92.5285C20.3951 92.03 20.4241 91.4202 20.4701 90.9241C20.5651 89.8077 20.7744 88.7041 21.0945 87.6304L21.3776 86.9988C21.3776 86.9988 27.6866 75.0731 29.4653 72.1739C30.8785 69.8967 32.0111 60.9499 33.0953 56.0712L34.4069 67.8348C33.9711 69.0428 33.6384 70.2855 33.4123 71.5495C33.1049 73.7275 34.4166 82.2798 34.7965 85.3218C34.8679 85.8848 34.8598 86.455 34.7723 87.0158C34.9006 88.3347 35.8758 88.7654 36.8753 89.535C37.3738 89.9173 39.5663 91.3306 40.9046 91.638C41.9936 91.88 42.4219 91.4758 42.5841 91.1709C41.1688 90.2437 39.8605 89.1626 38.683 87.9475Z" fill="#FFA8A7"/>
<path d="M16.6518 88.1006C16.5338 88.1705 16.432 88.2647 16.3531 88.3769C16.2743 88.4891 16.2202 88.6168 16.1944 88.7516C16.1 89.2162 16.221 89.8357 16.3759 90.4456C16.5308 91.0554 16.509 92.355 16.4485 93.3012C16.3849 94.1989 16.6422 95.0899 17.1745 95.8155C17.673 96.4641 18.5563 96.9481 19.7034 96.9892C20.8505 97.0304 21.4482 96.8755 21.8814 96.648C22.3146 96.4205 22.5009 95.2589 21.7846 94.9903C21.0683 94.7217 18.6095 94.2643 18.0796 91.9871C17.7646 90.638 17.2851 89.3327 16.6518 88.1006Z" fill="#263238"/>
<path d="M18.421 86.3946C18.5087 86.6607 18.5512 86.9396 18.5468 87.2198C18.5895 87.4516 18.6162 87.6861 18.6267 87.9216C18.6267 88.1297 18.663 88.379 18.8542 88.4588C18.9324 88.482 19.0156 88.482 19.0938 88.4588C19.172 88.4356 19.2417 88.3902 19.2946 88.3281C19.3968 88.201 19.4921 88.0685 19.5802 87.9313C19.685 87.7946 19.8191 87.683 19.9725 87.6046C20.1259 87.5262 20.2949 87.483 20.4671 87.4781C20.6393 87.4733 20.8105 87.5068 20.9681 87.5764C21.1257 87.646 21.2658 87.7499 21.3782 87.8804L21.2935 88.074C20.6217 89.7247 20.4747 91.5423 20.8724 93.2795C20.9434 93.6171 21.1279 93.9203 21.3952 94.1386C21.6238 94.3169 21.8389 94.5118 22.0389 94.7218C22.1389 94.8279 22.2147 94.9545 22.2611 95.0928C22.3074 95.2311 22.3233 95.3778 22.3075 95.5228C22.2599 95.7399 22.1331 95.9315 21.9518 96.06C21.7722 96.1869 21.5726 96.2826 21.3613 96.3432C20.3457 96.6785 19.2403 96.6136 18.2709 96.1617C17.8619 95.9455 17.5115 95.6332 17.2497 95.2518C16.7028 94.2378 16.7923 93.2867 16.8068 92.4252C16.8407 90.5231 16.5648 89.5333 16.4245 88.5774C16.2696 87.411 18.0652 86.201 18.421 86.3946Z" fill="#455A64"/>
<path d="M34.2262 89.7988C34.1584 90.2465 34.1124 90.445 34.6618 90.8588C35.2111 91.2726 36.0605 91.5654 36.7188 91.8268C37.377 92.0881 38.3039 92.8311 38.7032 93.2038C39.1025 93.5765 40.6537 94.2468 41.9169 94.2056C43.1802 94.1645 43.9134 93.8789 44.2184 93.6079C44.5233 93.3369 44.8403 92.381 44.032 92.1172C43.2237 91.8534 34.2262 89.7988 34.2262 89.7988Z" fill="#263238"/>
<path d="M34.7997 86.6365C34.7587 86.6458 34.7209 86.6657 34.6899 86.6941C34.6589 86.7225 34.6359 86.7586 34.6231 86.7986C34.5069 87.1543 34.5021 87.5633 34.4174 87.9287C34.2891 88.5023 34.1439 89.3251 34.2262 89.7897C34.3085 90.2544 34.9207 90.719 36.0847 91.082C36.7841 91.3022 38.0207 91.9435 38.5919 92.4832C39.2816 93.1438 40.7699 93.7174 41.7959 93.7755C42.9914 93.8432 44.2474 93.5552 44.5572 92.7034C44.6878 92.3428 44.6201 91.7838 43.1052 91.0094C43.1052 91.0094 41.9508 90.3899 41.5176 90.1043C40.755 89.6198 40.0388 89.0657 39.3784 88.449C39.139 88.2181 38.9189 87.968 38.7201 87.7013C38.616 87.5773 38.5229 87.4445 38.4418 87.3044C38.352 87.0468 38.2927 86.7796 38.2652 86.5082C38.2544 86.4221 38.2247 86.3394 38.178 86.2662C38.1146 86.1912 38.0304 86.1365 37.936 86.1089C37.7084 86.0237 37.463 85.9975 37.2225 86.0329C36.9821 86.0683 36.7545 86.1641 36.5611 86.3113C36.3678 86.4585 36.2149 86.6523 36.1167 86.8747C36.0186 87.097 35.9785 87.3406 36 87.5827C35.9178 87.6238 35.8161 87.5464 35.7895 87.4568C35.7761 87.3647 35.7689 87.2717 35.7677 87.1785C35.7472 87.0796 35.7011 86.9878 35.634 86.9122C35.5669 86.8366 35.4812 86.7799 35.3854 86.7478C35.2037 86.6587 35.0014 86.6202 34.7997 86.6365Z" fill="#455A64"/>
<path d="M32.4418 59.7742C32.6161 58.4577 33.0444 56.6669 33.0444 56.6669L33.4074 59.7258L34.1867 67.6707C33.9172 68.4108 33.6893 69.1654 33.5042 69.9309C33.1098 71.4652 33.1533 74.0449 33.3953 75.7389C33.6373 77.4329 34.1552 80.4676 34.1552 80.4676C36.6236 81.8398 38.5572 80.5499 38.5572 80.5499C38.5572 80.5499 39.1307 77.1329 39.726 72.2057C40.3214 67.2786 40.5972 62.3926 40.7376 58.2907C40.7376 58.2907 41.3741 48.0856 39.8277 41.1354C37.7586 42.5123 31.7158 42.6406 29.3321 40.6514C29.3321 40.6514 28.3133 42.2389 26.0893 45.7842C24.3421 48.5672 24.7148 53.1216 24.5865 56.9162C24.3881 62.7726 24.2477 69.3864 24.2477 69.3864C23.4519 70.2283 22.7357 71.1422 22.1084 72.1162C20.9952 73.8102 20.3467 77.6144 20.3467 77.6144C20.3467 77.6144 21.3655 79.9352 25.0439 80.1312C25.0439 80.1312 28.7901 73.7134 29.7266 72.259C30.6631 70.8046 32.2676 61.0883 32.4418 59.7742Z" fill="#37474F"/>
<path d="M33.0449 56.6668L34.5235 51.5315C34.5235 51.5315 37.1033 51.3234 39.1457 49.9053C39.1457 49.9053 38.6835 51.7856 35.1261 52.2478L33.466 57.2839V60.4008L33.0449 56.6668Z" fill="#263238"/>
<path d="M41.4377 32.0147C40.1503 29.9044 37.5246 27.8571 36.6727 27.1456L31.6125 27.0488C30.6179 27.0754 29.1586 27.165 29.1586 27.165C28.0914 27.6998 28.1083 29.009 28.0406 30.2432C27.9631 31.5984 27.9414 32.1938 28.256 34.4419L28.861 37.3145L28.9529 37.7549C28.9699 37.8299 28.9844 37.9074 29.0013 37.9969C29.2336 39.0978 29.0618 40.2455 28.5173 41.23C27.3073 43.408 25.8868 45.0464 25.4512 46.8928C26.1152 46.7264 26.7258 46.3932 27.225 45.9248C27.9898 45.2303 28.4496 44.9109 29.0691 44.0832C29.0691 44.0832 29.0957 45.3416 30.3009 47.0235C30.6098 47.4548 30.9662 47.8501 31.3632 48.202C33.5558 50.138 40.2834 51.1303 40.6585 45.2521C40.6585 45.2521 40.0123 41.5204 39.9204 40.2693C40.1382 39.1972 40.7504 37.3459 40.7746 36.9321C42.35 35.5745 42.3767 33.5514 41.4377 32.0147Z" fill="#D93151"/>
<path d="M31.6582 28.0725C32.1422 28.6582 33.3255 29.9626 34.4315 30.1876C35.731 30.4514 37.0693 30.3401 37.4008 29.5391C37.7324 28.738 37.0959 27.77 36.5102 27.1481L31.6122 27.0537H31.2564C31.2395 27.1433 31.1112 27.3925 31.6582 28.0725Z" fill="#455A64"/>
<path opacity="0.3" d="M28.1104 33.3189C28.1491 33.6431 28.1951 34.0134 28.2556 34.4417L28.8606 37.3143L28.9525 37.7547C28.9695 37.8297 28.984 37.9072 29.0009 37.9967C29.0702 38.3554 29.1011 38.7205 29.0929 39.0857C34.0442 40.7507 38.0469 39.8892 40.2079 39.0857C40.4499 38.1637 40.7524 37.2078 40.7694 36.9247C41.3099 36.4783 41.7078 35.8832 41.9139 35.2132C42.1199 34.5431 42.125 33.8273 41.9285 33.1543C40.7766 33.7472 39.0729 34.1029 37.3112 34.2675C34.2117 34.5603 31.0849 34.2379 28.1104 33.3189Z" fill="black"/>
<path opacity="0.1" d="M38.3352 36.6291C38.3352 36.6291 36.6412 38.0545 34.6108 37.4229C34.0439 37.2656 33.527 36.965 33.11 36.5501C32.6929 36.1352 32.3897 35.6198 32.2295 35.0537C32.2295 35.0537 32.1037 37.3454 34.6495 38.0303C37.1131 38.6885 38.3352 36.6291 38.3352 36.6291Z" fill="black"/>
<path d="M53.8685 45.3365C53.8214 45.2806 53.7592 45.2395 53.6894 45.2179C51.1581 44.2184 48.3267 45.1235 46.1221 44.8501L46.156 45.6051C47.2038 46.2512 48.4985 46.3722 49.7255 46.2754C50.9524 46.1786 52.1576 45.8907 53.3845 45.7793C53.5182 45.7812 53.6501 45.7478 53.7668 45.6825C53.8246 45.6485 53.8672 45.5939 53.8861 45.5296C53.9049 45.4653 53.8987 45.3963 53.8685 45.3365Z" fill="#F28F8F"/>
<path d="M36.0942 45.8737C35.4625 45.7285 34.255 45.2179 33.8266 44.6492C33.0571 43.6256 26.632 33.8705 26.2375 31.1892C25.9205 29.0305 26.9345 27.1236 29.1584 27.1647C30.5911 28.2053 32.0019 32.1765 32.0019 32.1765L37.0839 41.5056C38.8772 42.343 45.1522 44.4096 46.2582 44.7484C47.3641 45.0872 49.6195 44.8404 51.1248 45.3196C52.63 45.7987 56.4343 47.379 55.6671 48.0929C55.0791 48.635 54.445 49.1722 53.3875 49.2496C52.0879 49.3416 51.9355 48.8286 50.6311 48.7971C49.3267 48.7656 48.2401 49.1577 46.8656 48.6229C45.9968 48.2841 45.9581 48.0856 44.7481 47.7928C43.5381 47.5 36.9121 46.0601 36.0942 45.8737Z" fill="#FFA8A7"/>
<path d="M29.7945 27.1263C28.6716 26.9327 27.1325 27.0997 26.1887 28.542C25.2449 29.9844 26.075 31.9857 26.6727 33.324C27.2704 34.6622 29.2282 37.7526 29.2282 37.7526C29.2282 37.7526 33.4705 37.4452 34.2715 35.318C34.2715 35.3108 31.6845 29.7859 29.7945 27.1263Z" fill="#455A64"/>
<path d="M39.0727 15.1055C39.7745 15.5628 40.5828 17.4141 40.3262 21.2063C40.1084 24.42 39.0315 25.1678 38.4967 25.3735C37.9619 25.5792 36.96 25.3953 35.9848 25.1896L35.8976 27.1256C35.8976 27.1256 37.1076 28.1396 36.9794 29.0205C36.8511 29.9013 34.8716 30.1458 33.6398 29.2237C32.9514 28.7295 32.3426 28.133 31.8345 27.4547L32.0571 22.4502C32.0571 22.4502 31.3843 23.1423 30.3316 22.3727C30.1171 22.2167 29.9386 22.0164 29.8081 21.7855C29.6776 21.5545 29.5982 21.2982 29.5753 21.034C29.5524 20.7697 29.5864 20.5036 29.6751 20.2536C29.7639 20.0036 29.9052 19.7756 30.0896 19.5849C30.7479 18.9726 31.9337 19.3598 32.1466 20.2552C32.1466 20.2552 33.5454 20.231 35.6145 19.0452C37.8651 17.7723 38.4532 16.4316 39.0727 15.1055Z" fill="#FFA8A7"/>
<path d="M36.1928 20.1345C36.1899 20.2136 36.1639 20.2902 36.1179 20.3547C36.0719 20.4191 36.008 20.4687 35.9341 20.4971C35.8601 20.5256 35.7795 20.5317 35.7022 20.5147C35.6248 20.4977 35.5542 20.4583 35.499 20.4015C35.4438 20.3447 35.4065 20.2729 35.3918 20.1951C35.3771 20.1173 35.3856 20.0368 35.4162 19.9638C35.4468 19.8907 35.4981 19.8283 35.5639 19.7842C35.6297 19.7401 35.707 19.7163 35.7862 19.7158C35.8406 19.7161 35.8943 19.7273 35.9443 19.7486C35.9942 19.7699 36.0395 19.8009 36.0773 19.8399C36.1152 19.8788 36.1449 19.925 36.1647 19.9756C36.1845 20.0261 36.1941 20.0802 36.1928 20.1345Z" fill="#263238"/>
<path d="M36.5417 22.9541L37.6888 23.3752C37.6646 23.4522 37.625 23.5235 37.5725 23.5849C37.5201 23.6462 37.4558 23.6964 37.3835 23.7323C37.3112 23.7682 37.2323 23.7892 37.1518 23.7939C37.0712 23.7987 36.9904 23.7871 36.9144 23.76C36.7603 23.6997 36.6355 23.5821 36.5661 23.432C36.4966 23.2818 36.4879 23.1106 36.5417 22.9541Z" fill="#F28F8F"/>
<path d="M39.785 19.1185L38.9912 18.5135C39.0285 18.4607 39.0759 18.4159 39.1308 18.3818C39.1857 18.3476 39.2468 18.3247 39.3107 18.3146C39.3745 18.3044 39.4397 18.3072 39.5025 18.3227C39.5652 18.3381 39.6243 18.366 39.6761 18.4046C39.7821 18.4871 39.8525 18.6071 39.8727 18.7399C39.893 18.8727 39.8616 19.0082 39.785 19.1185Z" fill="#263238"/>
<path d="M39.5521 20.0691C39.5537 20.1232 39.5446 20.1771 39.5252 20.2276C39.5058 20.2782 39.4766 20.3244 39.4392 20.3635C39.4019 20.4027 39.3571 20.4341 39.3075 20.4558C39.2579 20.4775 39.2045 20.4892 39.1504 20.4902C39.0664 20.494 38.9832 20.4726 38.9114 20.4288C38.8397 20.3849 38.7827 20.3206 38.7478 20.2441C38.713 20.1676 38.7018 20.0824 38.7158 19.9994C38.7298 19.9165 38.7683 19.8397 38.8264 19.7789C38.8844 19.718 38.9593 19.6759 39.0415 19.6581C39.1237 19.6402 39.2093 19.6473 39.2874 19.6785C39.3655 19.7098 39.4324 19.7636 39.4796 19.8332C39.5268 19.9028 39.552 19.985 39.5521 20.0691Z" fill="#263238"/>
<path d="M37.587 19.75L37.541 22.1869L38.8406 21.8481L37.587 19.75Z" fill="#F28F8F"/>
<path d="M35.9848 25.1901C34.9563 25.0062 32.8534 24.302 32.5605 23.4453C32.6741 23.8766 32.9174 24.2627 33.2575 24.5513C33.8698 25.1248 35.9558 25.8339 35.9558 25.8339L35.9848 25.1901Z" fill="#F28F8F"/>
<path d="M50.1079 25.2749C50.0135 23.4575 50.5289 22.9251 51.1775 22.4895C51.8261 22.0539 54.2243 21.432 54.7204 21.6062C55.2165 21.7804 57.8156 23.0582 57.6921 24.319C57.5687 25.5798 56.3853 25.8944 55.0761 25.5944C53.7669 25.2943 51.5163 23.8132 51.0347 24.0238C50.5531 24.2343 50.1079 25.2749 50.1079 25.2749Z" fill="#FFA8A7"/>
<path d="M80.1836 27.0343C80.6507 26.8238 81.3428 27.1287 82.4076 26.9085C83.4724 26.6883 84.1839 26.2502 84.8083 26.1994C85.4326 26.1486 85.6964 25.9574 85.0624 25.6065C84.4283 25.2556 83.3224 25.4032 83.1022 25.3185C83.4399 25.1022 83.8088 24.939 84.196 24.8345C85.1043 24.6737 86.0203 24.5598 86.9403 24.4933C86.9911 24.4933 87.3275 23.9488 85.7569 23.731C84.1863 23.5132 81.8849 23.8496 81.0234 24.307C80.1619 24.7644 80.1836 27.0343 80.1836 27.0343Z" fill="#B16668"/>
</svg>
